<svg xmlns="http://www.w3.org/2000/svg" xmlns:xlink="http://www.w3.org/1999/xlink" version="1.1" class="marks" width="658" height="342" viewBox="0 0 658 342"><rect width="658" height="342" fill="white"/><g fill="none" stroke-miterlimit="10" transform="translate(53,5)"><g class="mark-group role-frame root" role="graphics-object" aria-roledescription="group mark container"><g transform="translate(0,0)"><path class="background" aria-hidden="true" d="M0.5,0.5h600v300h-600Z" stroke="#ddd"/><g><g class="mark-group role-axis" aria-hidden="true"><g transform="translate(0.5,300.5)"><path class="background" aria-hidden="true" d="M0,0h0v0h0Z" pointer-events="none"/><g><g class="mark-rule role-axis-grid" pointer-events="none"><line transform="translate(16,-300)" x2="0" y2="300" stroke="#ddd" stroke-width="1" opacity="1"/><line transform="translate(71,-300)" x2="0" y2="300" stroke="#ddd" stroke-width="1" opacity="1"/><line transform="translate(126,-300)" x2="0" y2="300" stroke="#ddd" stroke-width="1" opacity="1"/><line transform="translate(181,-300)" x2="0" y2="300" stroke="#ddd" stroke-width="1" opacity="1"/><line transform="translate(237,-300)" x2="0" y2="300" stroke="#ddd" stroke-width="1" opacity="1"/><line transform="translate(292,-300)" x2="0" y2="300" stroke="#ddd" stroke-width="1" opacity="1"/><line transform="translate(347,-300)" x2="0" y2="300" stroke="#ddd" stroke-width="1" opacity="1"/><line transform="translate(402,-300)" x2="0" y2="300" stroke="#ddd" stroke-width="1" opacity="1"/><line transform="translate(457,-300)" x2="0" y2="300" stroke="#ddd" stroke-width="1" opacity="1"/><line transform="translate(512,-300)" x2="0" y2="300" stroke="#ddd" stroke-width="1" opacity="1"/><line transform="translate(567,-300)" x2="0" y2="300" stroke="#ddd" stroke-width="1" opacity="1"/></g></g><path class="foreground" aria-hidden="true" d="" pointer-events="none" display="none"/></g></g><g class="mark-group role-axis" aria-hidden="true"><g transform="translate(0.5,0.5)"><path class="background" aria-hidden="true" d="M0,0h0v0h0Z" pointer-events="none"/><g><g class="mark-rule role-axis-grid" pointer-events="none"><line transform="translate(0,300)" x2="600" y2="0" stroke="#ddd" stroke-width="1" opacity="1"/><line transform="translate(0,242)" x2="600" y2="0" stroke="#ddd" stroke-width="1" opacity="1"/><line transform="translate(0,185)" x2="600" y2="0" stroke="#ddd" stroke-width="1" opacity="1"/><line transform="translate(0,127)" x2="600" y2="0" stroke="#ddd" stroke-width="1" opacity="1"/><line transform="translate(0,69)" x2="600" y2="0" stroke="#ddd" stroke-width="1" opacity="1"/><line transform="translate(0,12)" x2="600" y2="0" stroke="#ddd" stroke-width="1" opacity="1"/></g></g><path class="foreground" aria-hidden="true" d="" pointer-events="none" display="none"/></g></g><g class="mark-group role-axis" role="graphics-symbol" aria-roledescription="axis" aria-label="X-axis titled 'datum' for a time scale with values from Saturday, 03 February 1917, 7:07:07 PM to Friday, 28 November 2025, 4:52:52 AM"><g transform="translate(0.5,300.5)"><path class="background" aria-hidden="true" d="M0,0h0v0h0Z" pointer-events="none"/><g><g class="mark-rule role-axis-tick" pointer-events="none"><line transform="translate(16,0)" x2="0" y2="5" stroke="#888" stroke-width="1" opacity="1"/><line transform="translate(71,0)" x2="0" y2="5" stroke="#888" stroke-width="1" opacity="1"/><line transform="translate(126,0)" x2="0" y2="5" stroke="#888" stroke-width="1" opacity="1"/><line transform="translate(181,0)" x2="0" y2="5" stroke="#888" stroke-width="1" opacity="1"/><line transform="translate(237,0)" x2="0" y2="5" stroke="#888" stroke-width="1" opacity="1"/><line transform="translate(292,0)" x2="0" y2="5" stroke="#888" stroke-width="1" opacity="1"/><line transform="translate(347,0)" x2="0" y2="5" stroke="#888" stroke-width="1" opacity="1"/><line transform="translate(402,0)" x2="0" y2="5" stroke="#888" stroke-width="1" opacity="1"/><line transform="translate(457,0)" x2="0" y2="5" stroke="#888" stroke-width="1" opacity="1"/><line transform="translate(512,0)" x2="0" y2="5" stroke="#888" stroke-width="1" opacity="1"/><line transform="translate(567,0)" x2="0" y2="5" stroke="#888" stroke-width="1" opacity="1"/></g><g class="mark-text role-axis-label" pointer-events="none"><text text-anchor="middle" transform="translate(16.020418606972502,15)" font-family="sans-serif" font-size="10px" fill="#000" opacity="1">1920</text><text text-anchor="middle" transform="translate(71.16780103367653,15)" font-family="sans-serif" font-size="10px" fill="#000" opacity="1">1930</text><text text-anchor="middle" transform="translate(126.3000869965353,15)" font-family="sans-serif" font-size="10px" fill="#000" opacity="1">1940</text><text text-anchor="middle" transform="translate(181.44746942323934,15)" font-family="sans-serif" font-size="10px" fill="#000" opacity="1">1950</text><text text-anchor="middle" transform="translate(236.5797553860981,15)" font-family="sans-serif" font-size="10px" fill="#000" opacity="1">1960</text><text text-anchor="middle" transform="translate(291.72713781280214,15)" font-family="sans-serif" font-size="10px" fill="#000" opacity="1">1970</text><text text-anchor="middle" transform="translate(346.8594237756609,15)" font-family="sans-serif" font-size="10px" fill="#000" opacity="1">1980</text><text text-anchor="middle" transform="translate(402.00680620236494,15)" font-family="sans-serif" font-size="10px" fill="#000" opacity="1">1990</text><text text-anchor="middle" transform="translate(457.1390921652237,15)" font-family="sans-serif" font-size="10px" fill="#000" opacity="1">2000</text><text text-anchor="middle" transform="translate(512.2864745919277,15)" font-family="sans-serif" font-size="10px" fill="#000" opacity="1">2010</text><text text-anchor="middle" transform="translate(567.4187605547866,15)" font-family="sans-serif" font-size="10px" fill="#000" opacity="1">2020</text></g><g class="mark-rule role-axis-domain" pointer-events="none"><line transform="translate(0,0)" x2="600" y2="0" stroke="#888" stroke-width="1" opacity="1"/></g><g class="mark-text role-axis-title" pointer-events="none"><text text-anchor="middle" transform="translate(300,30)" font-family="sans-serif" font-size="11px" font-weight="bold" fill="#000" opacity="1">datum</text></g></g><path class="foreground" aria-hidden="true" d="" pointer-events="none" display="none"/></g></g><g class="mark-group role-axis" role="graphics-symbol" aria-roledescription="axis" aria-label="Y-axis titled 'podil' for a linear scale with values from 0.000 to 0.026"><g transform="translate(0.5,0.5)"><path class="background" aria-hidden="true" d="M0,0h0v0h0Z" pointer-events="none"/><g><g class="mark-rule role-axis-tick" pointer-events="none"><line transform="translate(0,300)" x2="-5" y2="0" stroke="#888" stroke-width="1" opacity="1"/><line transform="translate(0,242)" x2="-5" y2="0" stroke="#888" stroke-width="1" opacity="1"/><line transform="translate(0,185)" x2="-5" y2="0" stroke="#888" stroke-width="1" opacity="1"/><line transform="translate(0,127)" x2="-5" y2="0" stroke="#888" stroke-width="1" opacity="1"/><line transform="translate(0,69)" x2="-5" y2="0" stroke="#888" stroke-width="1" opacity="1"/><line transform="translate(0,12)" x2="-5" y2="0" stroke="#888" stroke-width="1" opacity="1"/></g><g class="mark-text role-axis-label" pointer-events="none"><text text-anchor="end" transform="translate(-7,303)" font-family="sans-serif" font-size="10px" fill="#000" opacity="1">0.000</text><text text-anchor="end" transform="translate(-7,245.30769230769232)" font-family="sans-serif" font-size="10px" fill="#000" opacity="1">0.005</text><text text-anchor="end" transform="translate(-7,187.6153846153846)" font-family="sans-serif" font-size="10px" fill="#000" opacity="1">0.010</text><text text-anchor="end" transform="translate(-7,129.9230769230769)" font-family="sans-serif" font-size="10px" fill="#000" opacity="1">0.015</text><text text-anchor="end" transform="translate(-7,72.23076923076921)" font-family="sans-serif" font-size="10px" fill="#000" opacity="1">0.020</text><text text-anchor="end" transform="translate(-7,14.538461538461497)" font-family="sans-serif" font-size="10px" fill="#000" opacity="1">0.025</text></g><g class="mark-rule role-axis-domain" pointer-events="none"><line transform="translate(0,300)" x2="0" y2="-300" stroke="#888" stroke-width="1" opacity="1"/></g><g class="mark-text role-axis-title" pointer-events="none"><text text-anchor="middle" transform="translate(-36.0244140625,150) rotate(-90) translate(0,-2)" font-family="sans-serif" font-size="11px" font-weight="bold" fill="#000" opacity="1">podil</text></g></g><path class="foreground" aria-hidden="true" d="" pointer-events="none" display="none"/></g></g><g class="mark-rect role-mark marks" role="graphics-object" aria-roledescription="rect mark container"><path aria-label="datum: Jan 01, 1918; podil: 0.00621118012422" role="graphics-symbol" aria-roledescription="bar" d="M2.4999999999388454,228.3325370281892h5v71.6674629718108h-5Z" fill="#4c78a8"/><path aria-label="datum: Jan 01, 1919; podil: 0.0177394830208" role="graphics-symbol" aria-roledescription="bar" d="M8.010209303455673,95.31365745253227h5v204.68634254746775h-5Z" fill="#4c78a8"/><path aria-label="datum: Jan 01, 1920; podil: 0.0160891089109" role="graphics-symbol" aria-roledescription="bar" d="M13.520418606972502,114.35643564356435h5v185.64356435643566h-5Z" fill="#4c78a8"/><path aria-label="datum: Jan 01, 1921; podil: 0.0128452151574" role="graphics-symbol" aria-roledescription="bar" d="M19.04572437433458,151.785978953609h5v148.214021046391h-5Z" fill="#4c78a8"/><path aria-label="datum: Jan 01, 1922; podil: 0.0143799472296" role="graphics-symbol" aria-roledescription="bar" d="M24.555933677851407,134.07753196671402h5v165.92246803328598h-5Z" fill="#4c78a8"/><path aria-label="datum: Jan 01, 1923; podil: 0.0147283856159" role="graphics-symbol" aria-roledescription="bar" d="M30.06614298136823,130.0570890471426h5v169.9429109528574h-5Z" fill="#4c78a8"/><path aria-label="datum: Jan 01, 1924; podil: 0.018194791295" role="graphics-symbol" aria-roledescription="bar" d="M35.576352284885054,90.0601004418343h5v209.9398995581657h-5Z" fill="#4c78a8"/><path aria-label="datum: Jan 01, 1925; podil: 0.02356309183" role="graphics-symbol" aria-roledescription="bar" d="M41.10165805224714,28.11817119238389h5v271.8818288076161h-5Z" fill="#4c78a8"/><path aria-label="datum: Jan 01, 1926; podil: 0.0259191435413" role="graphics-symbol" aria-roledescription="bar" d="M46.61186735576396,0.9329591383401614h5v299.06704086165985h-5Z" fill="#4c78a8"/><path aria-label="datum: Jan 01, 1927; podil: 0.0150974025974" role="graphics-symbol" aria-roledescription="bar" d="M52.12207665928079,125.79920079920079h5v174.20079920079922h-5Z" fill="#4c78a8"/><path aria-label="datum: Jan 01, 1928; podil: 0.0218818380744" role="graphics-symbol" aria-roledescription="bar" d="M57.63228596279762,47.51725298771249h5v252.48274701228752h-5Z" fill="#4c78a8"/><path aria-label="datum: Jan 01, 1929; podil: 0.0133007600434" role="graphics-symbol" aria-roledescription="bar" d="M63.157591730159695,146.52969180656476h5v153.47030819343524h-5Z" fill="#4c78a8"/><path aria-label="datum: Jan 01, 1930; podil: 0.0169423154498" role="graphics-symbol" aria-roledescription="bar" d="M68.66780103367653,104.51174481025227h5v195.48825518974775h-5Z" fill="#4c78a8"/><path aria-label="datum: Jan 01, 1931; podil: 0.00816394535155" role="graphics-symbol" aria-roledescription="bar" d="M74.17801033719336,205.80063055904444h5v94.19936944095556h-5Z" fill="#4c78a8"/><path aria-label="datum: Jan 01, 1932; podil: 0.00752928053542" role="graphics-symbol" aria-roledescription="bar" d="M79.68821964071019,213.1236861298211h5v86.8763138701789h-5Z" fill="#4c78a8"/><path aria-label="datum: Jan 01, 1933; podil: 0.00542005420054" role="graphics-symbol" aria-roledescription="bar" d="M85.21352540807227,237.46091307066916h5v62.539086929330836h-5Z" fill="#4c78a8"/><path aria-label="datum: Jan 01, 1934; podil: 0.00925354719309" role="graphics-symbol" aria-roledescription="bar" d="M90.7237347115891,193.2283016181844h5v106.77169838181561h-5Z" fill="#4c78a8"/><path aria-label="datum: Jan 01, 1935; podil: 0.00683017696368" role="graphics-symbol" aria-roledescription="bar" d="M96.23394401510592,221.19026580373986h5v78.80973419626014h-5Z" fill="#4c78a8"/><path aria-label="datum: Jan 01, 1936; podil: 0.0116036893782" role="graphics-symbol" aria-roledescription="bar" d="M101.74415331862274,166.11127640583157h5v133.88872359416843h-5Z" fill="#4c78a8"/><path aria-label="datum: Jan 01, 1937; podil: 0.00777453838678" role="graphics-symbol" aria-roledescription="bar" d="M107.26945908598482,210.29378784480824h5v89.70621215519176h-5Z" fill="#4c78a8"/><path aria-label="datum: Jan 01, 1938; podil: 0.00380228136882" role="graphics-symbol" aria-roledescription="bar" d="M112.77966838950165,256.1275226674466h5v43.87247733255339h-5Z" fill="#4c78a8"/><path aria-label="datum: Jan 01, 1945; podil: 0.00140449438202" role="graphics-symbol" aria-roledescription="bar" d="M151.38132644180993,283.7942955920484h5v16.2057044079516h-5Z" fill="#4c78a8"/><path aria-label="datum: Jan 01, 1946; podil: 0.00499643112063" role="graphics-symbol" aria-roledescription="bar" d="M156.89153574532676,242.34887168506012h5v57.65112831493988h-5Z" fill="#4c78a8"/><path aria-label="datum: Jan 01, 1947; podil: 0.00564288593309" role="graphics-symbol" aria-roledescription="bar" d="M162.40237406817047,234.88977769509813h5v65.11022230490187h-5Z" fill="#4c78a8"/><path aria-label="datum: Jan 01, 1948; podil: 0.000798722044728" role="graphics-symbol" aria-roledescription="bar" d="M167.91195435236042,290.7839764069796h5v9.216023593020395h-5Z" fill="#4c78a8"/><path aria-label="datum: Jan 01, 1950; podil: 0.00688073394495" role="graphics-symbol" aria-roledescription="bar" d="M178.94746942323934,220.60691601976004h5v79.39308398023996h-5Z" fill="#4c78a8"/><path aria-label="datum: Jan 01, 1951; podil: 0.00547945205479" role="graphics-symbol" aria-roledescription="bar" d="M184.45767872675617,236.77555321390938h5v63.224446786090624h-5Z" fill="#4c78a8"/><path aria-label="datum: Jan 01, 1952; podil: 0.00516795865633" role="graphics-symbol" aria-roledescription="bar" d="M189.96788803027297,240.36970781156825h5v59.63029218843175h-5Z" fill="#4c78a8"/><path aria-label="datum: Jan 01, 1953; podil: 0.00696864111498" role="graphics-symbol" aria-roledescription="bar" d="M195.49319379763506,219.59260251943178h5v80.40739748056822h-5Z" fill="#4c78a8"/><path aria-label="datum: Jan 01, 1960; podil: 0.00250626566416" role="graphics-symbol" aria-roledescription="bar" d="M234.0797553860981,271.08155002891846h5v28.918449971081543h-5Z" fill="#4c78a8"/><path aria-label="datum: Jan 01, 1971; podil: 0.00231213872832" role="graphics-symbol" aria-roledescription="bar" d="M294.737347116319,273.3214762116496h5v26.67852378835039h-5Z" fill="#4c78a8"/><path aria-label="datum: Jan 01, 1972; podil: 0.00499168053245" role="graphics-symbol" aria-roledescription="bar" d="M300.2475564198358,242.40368616408549h5v57.596313835914515h-5Z" fill="#4c78a8"/><path aria-label="datum: Jan 01, 1974; podil: 0.00373599003736" role="graphics-symbol" aria-roledescription="bar" d="M311.2830714907147,256.89242264584726h5v43.10757735415274h-5Z" fill="#4c78a8"/><path aria-label="datum: Jan 01, 1975; podil: 0.00218579234973" role="graphics-symbol" aria-roledescription="bar" d="M316.7932807942315,274.77931904161414h5v25.220680958385856h-5Z" fill="#4c78a8"/><path aria-label="datum: Jan 01, 1976; podil: 0.00604229607251" role="graphics-symbol" aria-roledescription="bar" d="M322.30349009774835,230.2811991633744h5v69.7188008366256h-5Z" fill="#4c78a8"/><path aria-label="datum: Jan 01, 1991; podil: 0.0000644226123369" role="graphics-symbol" aria-roledescription="bar" d="M405.0170155058818,299.25666216534313h5v0.7433378346568702h-5Z" fill="#4c78a8"/><path aria-label="datum: Jan 01, 1992; podil: 0.0000401945415813" role="graphics-symbol" aria-roledescription="bar" d="M410.5272248093986,299.5362168279086h5v0.4637831720913823h-5Z" fill="#4c78a8"/><path aria-label="datum: Jan 01, 1993; podil: 0.000115194102062" role="graphics-symbol" aria-roledescription="bar" d="M416.05253057676066,298.6708372839003h5v1.3291627160996882h-5Z" fill="#4c78a8"/><path aria-label="datum: Jan 01, 1996; podil: 0.000109421162053" role="graphics-symbol" aria-roledescription="bar" d="M432.58315848731115,298.73744813016066h5v1.262551869839342h-5Z" fill="#4c78a8"/><path aria-label="datum: Jan 01, 1997; podil: 0.000062912865681" role="graphics-symbol" aria-roledescription="bar" d="M438.10846425467327,299.27408231906503h5v0.7259176809349697h-5Z" fill="#4c78a8"/><path aria-label="datum: Jan 01, 1998; podil: 0.0000876193814072" role="graphics-symbol" aria-roledescription="bar" d="M443.61867355819004,298.98900713760963h5v1.010992862390367h-5Z" fill="#4c78a8"/><path aria-label="datum: Jan 01, 2000; podil: 0.0000888336146398" role="graphics-symbol" aria-roledescription="bar" d="M454.6390921652237,298.9749967541564h5v1.0250032458436067h-5Z" fill="#4c78a8"/><path aria-label="datum: Jan 01, 2008; podil: 0.0000713623064297" role="graphics-symbol" aria-roledescription="bar" d="M498.75095952104886,299.1765887719645h5v0.8234112280355248h-5Z" fill="#4c78a8"/><path aria-label="datum: Jan 01, 2009; podil: 0.000120148984741" role="graphics-symbol" aria-roledescription="bar" d="M504.2762652884109,298.61366556067986h5v1.3863344393201373h-5Z" fill="#4c78a8"/><path aria-label="datum: Jan 01, 2010; podil: 0.0000777061154713" role="graphics-symbol" aria-roledescription="bar" d="M509.7864745919277,299.1033909753313h5v0.8966090246686917h-5Z" fill="#4c78a8"/><path aria-label="datum: Jan 01, 2012; podil: 0.000407276676622" role="graphics-symbol" aria-roledescription="bar" d="M520.8068931989615,295.30065373128093h5v4.699346268719069h-5Z" fill="#4c78a8"/><path aria-label="datum: Jan 01, 2013; podil: 0.000202408663091" role="graphics-symbol" aria-roledescription="bar" d="M526.3321989663235,297.6645154258756h5v2.3354845741243935h-5Z" fill="#4c78a8"/><path aria-label="datum: Jan 01, 2014; podil: 0.0000481208796497" role="graphics-symbol" aria-roledescription="bar" d="M531.8424082698403,299.44475908096524h5v0.5552409190347589h-5Z" fill="#4c78a8"/><path aria-label="datum: Jan 01, 2022; podil: 0.00509076937854" role="graphics-symbol" aria-roledescription="bar" d="M575.9542756256654,241.26035332451622h5v58.73964667548378h-5Z" fill="#4c78a8"/><path aria-label="datum: Jan 01, 2023; podil: 0.00372611082175" role="graphics-symbol" aria-roledescription="bar" d="M581.4644849291823,257.00641359521927h5v42.99358640478073h-5Z" fill="#4c78a8"/><path aria-label="datum: Jan 01, 2024; podil: 0.00219298245614" role="graphics-symbol" aria-roledescription="bar" d="M586.974694232699,274.69635627530363h5v25.30364372469637h-5Z" fill="#4c78a8"/><path aria-label="datum: Jan 01, 2025; podil: 0.00238504102271" role="graphics-symbol" aria-roledescription="bar" d="M592.5000000000612,272.4802958918586h5v27.51970410814141h-5Z" fill="#4c78a8"/></g></g><path class="foreground" aria-hidden="true" d="" display="none"/></g></g></g></svg>