<svg xmlns="http://www.w3.org/2000/svg" xmlns:xlink="http://www.w3.org/1999/xlink" version="1.1" class="marks" width="658" height="342" viewBox="0 0 658 342"><rect width="658" height="342" fill="white"/><g fill="none" stroke-miterlimit="10" transform="translate(53,5)"><g class="mark-group role-frame root" role="graphics-object" aria-roledescription="group mark container"><g transform="translate(0,0)"><path class="background" aria-hidden="true" d="M0.5,0.5h600v300h-600Z" stroke="#ddd"/><g><g class="mark-group role-axis" aria-hidden="true"><g transform="translate(0.5,300.5)"><path class="background" aria-hidden="true" d="M0,0h0v0h0Z" pointer-events="none"/><g><g class="mark-rule role-axis-grid" pointer-events="none"><line transform="translate(16,-300)" x2="0" y2="300" stroke="#ddd" stroke-width="1" opacity="1"/><line transform="translate(71,-300)" x2="0" y2="300" stroke="#ddd" stroke-width="1" opacity="1"/><line transform="translate(126,-300)" x2="0" y2="300" stroke="#ddd" stroke-width="1" opacity="1"/><line transform="translate(181,-300)" x2="0" y2="300" stroke="#ddd" stroke-width="1" opacity="1"/><line transform="translate(237,-300)" x2="0" y2="300" stroke="#ddd" stroke-width="1" opacity="1"/><line transform="translate(292,-300)" x2="0" y2="300" stroke="#ddd" stroke-width="1" opacity="1"/><line transform="translate(347,-300)" x2="0" y2="300" stroke="#ddd" stroke-width="1" opacity="1"/><line transform="translate(402,-300)" x2="0" y2="300" stroke="#ddd" stroke-width="1" opacity="1"/><line transform="translate(457,-300)" x2="0" y2="300" stroke="#ddd" stroke-width="1" opacity="1"/><line transform="translate(512,-300)" x2="0" y2="300" stroke="#ddd" stroke-width="1" opacity="1"/><line transform="translate(567,-300)" x2="0" y2="300" stroke="#ddd" stroke-width="1" opacity="1"/></g></g><path class="foreground" aria-hidden="true" d="" pointer-events="none" display="none"/></g></g><g class="mark-group role-axis" aria-hidden="true"><g transform="translate(0.5,0.5)"><path class="background" aria-hidden="true" d="M0,0h0v0h0Z" pointer-events="none"/><g><g class="mark-rule role-axis-grid" pointer-events="none"><line transform="translate(0,300)" x2="600" y2="0" stroke="#ddd" stroke-width="1" opacity="1"/><line transform="translate(0,242)" x2="600" y2="0" stroke="#ddd" stroke-width="1" opacity="1"/><line transform="translate(0,185)" x2="600" y2="0" stroke="#ddd" stroke-width="1" opacity="1"/><line transform="translate(0,127)" x2="600" y2="0" stroke="#ddd" stroke-width="1" opacity="1"/><line transform="translate(0,69)" x2="600" y2="0" stroke="#ddd" stroke-width="1" opacity="1"/><line transform="translate(0,12)" x2="600" y2="0" stroke="#ddd" stroke-width="1" opacity="1"/></g></g><path class="foreground" aria-hidden="true" d="" pointer-events="none" display="none"/></g></g><g class="mark-group role-axis" role="graphics-symbol" aria-roledescription="axis" aria-label="X-axis titled 'datum' for a time scale with values from Saturday, 03 February 1917, 7:07:07 PM to Friday, 28 November 2025, 4:52:52 AM"><g transform="translate(0.5,300.5)"><path class="background" aria-hidden="true" d="M0,0h0v0h0Z" pointer-events="none"/><g><g class="mark-rule role-axis-tick" pointer-events="none"><line transform="translate(16,0)" x2="0" y2="5" stroke="#888" stroke-width="1" opacity="1"/><line transform="translate(71,0)" x2="0" y2="5" stroke="#888" stroke-width="1" opacity="1"/><line transform="translate(126,0)" x2="0" y2="5" stroke="#888" stroke-width="1" opacity="1"/><line transform="translate(181,0)" x2="0" y2="5" stroke="#888" stroke-width="1" opacity="1"/><line transform="translate(237,0)" x2="0" y2="5" stroke="#888" stroke-width="1" opacity="1"/><line transform="translate(292,0)" x2="0" y2="5" stroke="#888" stroke-width="1" opacity="1"/><line transform="translate(347,0)" x2="0" y2="5" stroke="#888" stroke-width="1" opacity="1"/><line transform="translate(402,0)" x2="0" y2="5" stroke="#888" stroke-width="1" opacity="1"/><line transform="translate(457,0)" x2="0" y2="5" stroke="#888" stroke-width="1" opacity="1"/><line transform="translate(512,0)" x2="0" y2="5" stroke="#888" stroke-width="1" opacity="1"/><line transform="translate(567,0)" x2="0" y2="5" stroke="#888" stroke-width="1" opacity="1"/></g><g class="mark-text role-axis-label" pointer-events="none"><text text-anchor="middle" transform="translate(16.020418606972502,15)" font-family="sans-serif" font-size="10px" fill="#000" opacity="1">1920</text><text text-anchor="middle" transform="translate(71.16780103367653,15)" font-family="sans-serif" font-size="10px" fill="#000" opacity="1">1930</text><text text-anchor="middle" transform="translate(126.3000869965353,15)" font-family="sans-serif" font-size="10px" fill="#000" opacity="1">1940</text><text text-anchor="middle" transform="translate(181.44746942323934,15)" font-family="sans-serif" font-size="10px" fill="#000" opacity="1">1950</text><text text-anchor="middle" transform="translate(236.5797553860981,15)" font-family="sans-serif" font-size="10px" fill="#000" opacity="1">1960</text><text text-anchor="middle" transform="translate(291.72713781280214,15)" font-family="sans-serif" font-size="10px" fill="#000" opacity="1">1970</text><text text-anchor="middle" transform="translate(346.8594237756609,15)" font-family="sans-serif" font-size="10px" fill="#000" opacity="1">1980</text><text text-anchor="middle" transform="translate(402.00680620236494,15)" font-family="sans-serif" font-size="10px" fill="#000" opacity="1">1990</text><text text-anchor="middle" transform="translate(457.1390921652237,15)" font-family="sans-serif" font-size="10px" fill="#000" opacity="1">2000</text><text text-anchor="middle" transform="translate(512.2864745919277,15)" font-family="sans-serif" font-size="10px" fill="#000" opacity="1">2010</text><text text-anchor="middle" transform="translate(567.4187605547866,15)" font-family="sans-serif" font-size="10px" fill="#000" opacity="1">2020</text></g><g class="mark-rule role-axis-domain" pointer-events="none"><line transform="translate(0,0)" x2="600" y2="0" stroke="#888" stroke-width="1" opacity="1"/></g><g class="mark-text role-axis-title" pointer-events="none"><text text-anchor="middle" transform="translate(300,30)" font-family="sans-serif" font-size="11px" font-weight="bold" fill="#000" opacity="1">datum</text></g></g><path class="foreground" aria-hidden="true" d="" pointer-events="none" display="none"/></g></g><g class="mark-group role-axis" role="graphics-symbol" aria-roledescription="axis" aria-label="Y-axis titled 'podil' for a linear scale with values from 0.000 to 0.026"><g transform="translate(0.5,0.5)"><path class="background" aria-hidden="true" d="M0,0h0v0h0Z" pointer-events="none"/><g><g class="mark-rule role-axis-tick" pointer-events="none"><line transform="translate(0,300)" x2="-5" y2="0" stroke="#888" stroke-width="1" opacity="1"/><line transform="translate(0,242)" x2="-5" y2="0" stroke="#888" stroke-width="1" opacity="1"/><line transform="translate(0,185)" x2="-5" y2="0" stroke="#888" stroke-width="1" opacity="1"/><line transform="translate(0,127)" x2="-5" y2="0" stroke="#888" stroke-width="1" opacity="1"/><line transform="translate(0,69)" x2="-5" y2="0" stroke="#888" stroke-width="1" opacity="1"/><line transform="translate(0,12)" x2="-5" y2="0" stroke="#888" stroke-width="1" opacity="1"/></g><g class="mark-text role-axis-label" pointer-events="none"><text text-anchor="end" transform="translate(-7,303)" font-family="sans-serif" font-size="10px" fill="#000" opacity="1">0.000</text><text text-anchor="end" transform="translate(-7,245.30769230769232)" font-family="sans-serif" font-size="10px" fill="#000" opacity="1">0.005</text><text text-anchor="end" transform="translate(-7,187.6153846153846)" font-family="sans-serif" font-size="10px" fill="#000" opacity="1">0.010</text><text text-anchor="end" transform="translate(-7,129.9230769230769)" font-family="sans-serif" font-size="10px" fill="#000" opacity="1">0.015</text><text text-anchor="end" transform="translate(-7,72.23076923076921)" font-family="sans-serif" font-size="10px" fill="#000" opacity="1">0.020</text><text text-anchor="end" transform="translate(-7,14.538461538461497)" font-family="sans-serif" font-size="10px" fill="#000" opacity="1">0.025</text></g><g class="mark-rule role-axis-domain" pointer-events="none"><line transform="translate(0,300)" x2="0" y2="-300" stroke="#888" stroke-width="1" opacity="1"/></g><g class="mark-text role-axis-title" pointer-events="none"><text text-anchor="middle" transform="translate(-36.0244140625,150) rotate(-90) translate(0,-2)" font-family="sans-serif" font-size="11px" font-weight="bold" fill="#000" opacity="1">podil</text></g></g><path class="foreground" aria-hidden="true" d="" pointer-events="none" display="none"/></g></g><g class="mark-rect role-mark marks" role="graphics-object" aria-roledescription="rect mark container"><path aria-label="datum: Jan 01, 1918; podil: 0.00621118012422" role="graphics-symbol" aria-roledescription="bar" d="M2.4999999999388454,228.3325370281892h5v71.6674629718108h-5Z" fill="#4c78a8"/><path aria-label="datum: Jan 01, 1919; podil: 0.0177619893428" role="graphics-symbol" aria-roledescription="bar" d="M8.010209303455673,95.05396912146469h5v204.9460308785353h-5Z" fill="#4c78a8"/><path aria-label="datum: Jan 01, 1920; podil: 0.0161004953999" role="graphics-symbol" aria-roledescription="bar" d="M13.520418606972502,114.22505307855623h5v185.77494692144376h-5Z" fill="#4c78a8"/><path aria-label="datum: Jan 01, 1921; podil: 0.0128452151574" role="graphics-symbol" aria-roledescription="bar" d="M19.04572437433458,151.785978953609h5v148.214021046391h-5Z" fill="#4c78a8"/><path aria-label="datum: Jan 01, 1922; podil: 0.0143875395987" role="graphics-symbol" aria-roledescription="bar" d="M24.555933677851407,133.98992770692877h5v166.01007229307123h-5Z" fill="#4c78a8"/><path aria-label="datum: Jan 01, 1923; podil: 0.0147368421053" role="graphics-symbol" aria-roledescription="bar" d="M30.06614298136823,129.95951417004048h5v170.04048582995952h-5Z" fill="#4c78a8"/><path aria-label="datum: Jan 01, 1924; podil: 0.0181980374665" role="graphics-symbol" aria-roledescription="bar" d="M35.576352284885054,90.02264461675703h5v209.97735538324298h-5Z" fill="#4c78a8"/><path aria-label="datum: Jan 01, 1925; podil: 0.0235734743336" role="graphics-symbol" aria-roledescription="bar" d="M41.10165805224714,27.99837307438099h5v272.001626925619h-5Z" fill="#4c78a8"/><path aria-label="datum: Jan 01, 1926; podil: 0.0259227951536" role="graphics-symbol" aria-roledescription="bar" d="M46.61186735576396,0.8908251511801524h5v299.10917484881986h-5Z" fill="#4c78a8"/><path aria-label="datum: Jan 01, 1927; podil: 0.0150974025974" role="graphics-symbol" aria-roledescription="bar" d="M52.12207665928079,125.79920079920079h5v174.20079920079922h-5Z" fill="#4c78a8"/><path aria-label="datum: Jan 01, 1928; podil: 0.0218855218855" role="graphics-symbol" aria-roledescription="bar" d="M57.63228596279762,47.47474747474746h5v252.52525252525254h-5Z" fill="#4c78a8"/><path aria-label="datum: Jan 01, 1929; podil: 0.0133007600434" role="graphics-symbol" aria-roledescription="bar" d="M63.157591730159695,146.52969180656476h5v153.47030819343524h-5Z" fill="#4c78a8"/><path aria-label="datum: Jan 01, 1930; podil: 0.0169423154498" role="graphics-symbol" aria-roledescription="bar" d="M68.66780103367653,104.51174481025227h5v195.48825518974775h-5Z" fill="#4c78a8"/><path aria-label="datum: Jan 01, 1931; podil: 0.00816394535155" role="graphics-symbol" aria-roledescription="bar" d="M74.17801033719336,205.80063055904444h5v94.19936944095556h-5Z" fill="#4c78a8"/><path aria-label="datum: Jan 01, 1932; podil: 0.00752928053542" role="graphics-symbol" aria-roledescription="bar" d="M79.68821964071019,213.1236861298211h5v86.8763138701789h-5Z" fill="#4c78a8"/><path aria-label="datum: Jan 01, 1933; podil: 0.00542005420054" role="graphics-symbol" aria-roledescription="bar" d="M85.21352540807227,237.46091307066916h5v62.539086929330836h-5Z" fill="#4c78a8"/><path aria-label="datum: Jan 01, 1934; podil: 0.00925354719309" role="graphics-symbol" aria-roledescription="bar" d="M90.7237347115891,193.2283016181844h5v106.77169838181561h-5Z" fill="#4c78a8"/><path aria-label="datum: Jan 01, 1935; podil: 0.00683229813665" role="graphics-symbol" aria-roledescription="bar" d="M96.23394401510592,221.16579073100812h5v78.83420926899188h-5Z" fill="#4c78a8"/><path aria-label="datum: Jan 01, 1936; podil: 0.0116105983924" role="graphics-symbol" aria-roledescription="bar" d="M101.74415331862274,166.03155701101514h5v133.96844298898486h-5Z" fill="#4c78a8"/><path aria-label="datum: Jan 01, 1937; podil: 0.00777453838678" role="graphics-symbol" aria-roledescription="bar" d="M107.26945908598482,210.29378784480824h5v89.70621215519176h-5Z" fill="#4c78a8"/><path aria-label="datum: Jan 01, 1938; podil: 0.00380228136882" role="graphics-symbol" aria-roledescription="bar" d="M112.77966838950165,256.1275226674466h5v43.87247733255339h-5Z" fill="#4c78a8"/><path aria-label="datum: Jan 01, 1945; podil: 0.00140449438202" role="graphics-symbol" aria-roledescription="bar" d="M151.38132644180993,283.7942955920484h5v16.2057044079516h-5Z" fill="#4c78a8"/><path aria-label="datum: Jan 01, 1946; podil: 0.00499643112063" role="graphics-symbol" aria-roledescription="bar" d="M156.89153574532676,242.34887168506012h5v57.65112831493988h-5Z" fill="#4c78a8"/><path aria-label="datum: Jan 01, 1947; podil: 0.00564516129032" role="graphics-symbol" aria-roledescription="bar" d="M162.40237406817047,234.863523573201h5v65.13647642679899h-5Z" fill="#4c78a8"/><path aria-label="datum: Jan 01, 1948; podil: 0.000798722044728" role="graphics-symbol" aria-roledescription="bar" d="M167.91195435236042,290.7839764069796h5v9.216023593020395h-5Z" fill="#4c78a8"/><path aria-label="datum: Jan 01, 1950; podil: 0.00688073394495" role="graphics-symbol" aria-roledescription="bar" d="M178.94746942323934,220.60691601976004h5v79.39308398023996h-5Z" fill="#4c78a8"/><path aria-label="datum: Jan 01, 1951; podil: 0.00547945205479" role="graphics-symbol" aria-roledescription="bar" d="M184.45767872675617,236.77555321390938h5v63.224446786090624h-5Z" fill="#4c78a8"/><path aria-label="datum: Jan 01, 1952; podil: 0.00516795865633" role="graphics-symbol" aria-roledescription="bar" d="M189.96788803027297,240.36970781156825h5v59.63029218843175h-5Z" fill="#4c78a8"/><path aria-label="datum: Jan 01, 1953; podil: 0.00696864111498" role="graphics-symbol" aria-roledescription="bar" d="M195.49319379763506,219.59260251943178h5v80.40739748056822h-5Z" fill="#4c78a8"/><path aria-label="datum: Jan 01, 1960; podil: 0.00250626566416" role="graphics-symbol" aria-roledescription="bar" d="M234.0797553860981,271.08155002891846h5v28.918449971081543h-5Z" fill="#4c78a8"/><path aria-label="datum: Jan 01, 1971; podil: 0.00231213872832" role="graphics-symbol" aria-roledescription="bar" d="M294.737347116319,273.3214762116496h5v26.67852378835039h-5Z" fill="#4c78a8"/><path aria-label="datum: Jan 01, 1972; podil: 0.00499168053245" role="graphics-symbol" aria-roledescription="bar" d="M300.2475564198358,242.40368616408549h5v57.596313835914515h-5Z" fill="#4c78a8"/><path aria-label="datum: Jan 01, 1974; podil: 0.00375" role="graphics-symbol" aria-roledescription="bar" d="M311.2830714907147,256.7307692307692h5v43.269230769230774h-5Z" fill="#4c78a8"/><path aria-label="datum: Jan 01, 1975; podil: 0.00218818380744" role="graphics-symbol" aria-roledescription="bar" d="M316.7932807942315,274.75172529877125h5v25.248274701228752h-5Z" fill="#4c78a8"/><path aria-label="datum: Jan 01, 1976; podil: 0.00610687022901" role="graphics-symbol" aria-roledescription="bar" d="M322.30349009774835,229.5361127422196h5v70.46388725778041h-5Z" fill="#4c78a8"/><path aria-label="datum: Jan 01, 1991; podil: 0.0000648361266898" role="graphics-symbol" aria-roledescription="bar" d="M405.0170155058818,299.25189084588703h5v0.7481091541129672h-5Z" fill="#4c78a8"/><path aria-label="datum: Jan 01, 1992; podil: 0.0000402446877012" role="graphics-symbol" aria-roledescription="bar" d="M410.5272248093986,299.53563821883205h5v0.4643617811679519h-5Z" fill="#4c78a8"/><path aria-label="datum: Jan 01, 1993; podil: 0.000116822429907" role="graphics-symbol" aria-roledescription="bar" d="M416.05253057676066,298.6520488856938h5v1.3479511143062268h-5Z" fill="#4c78a8"/><path aria-label="datum: Jan 01, 1996; podil: 0.00011327594019" role="graphics-symbol" aria-roledescription="bar" d="M432.58315848731115,298.6929699208811h5v1.3070300791188743h-5Z" fill="#4c78a8"/><path aria-label="datum: Jan 01, 1997; podil: 0.0000645119669699" role="graphics-symbol" aria-roledescription="bar" d="M438.10846425467327,299.25563115034765h5v0.7443688496523464h-5Z" fill="#4c78a8"/><path aria-label="datum: Jan 01, 1998; podil: 0.0000999600159936" role="graphics-symbol" aria-roledescription="bar" d="M443.61867355819004,298.8466152000738h5v1.1533847999261866h-5Z" fill="#4c78a8"/><path aria-label="datum: Jan 01, 2000; podil: 0.0000903913947392" role="graphics-symbol" aria-roledescription="bar" d="M454.6390921652237,298.9570223683936h5v1.0429776316063908h-5Z" fill="#4c78a8"/><path aria-label="datum: Jan 01, 2008; podil: 0.0000752841978469" role="graphics-symbol" aria-roledescription="bar" d="M498.75095952104886,299.13133617868993h5v0.868663821310065h-5Z" fill="#4c78a8"/><path aria-label="datum: Jan 01, 2009; podil: 0.000126374320738" role="graphics-symbol" aria-roledescription="bar" d="M504.2762652884109,298.54183476071506h5v1.4581652392849378h-5Z" fill="#4c78a8"/><path aria-label="datum: Jan 01, 2010; podil: 0.0000819000819001" role="graphics-symbol" aria-roledescription="bar" d="M509.7864745919277,299.0549990549991h5v0.9450009450009134h-5Z" fill="#4c78a8"/><path aria-label="datum: Jan 01, 2012; podil: 0.000431158378844" role="graphics-symbol" aria-roledescription="bar" d="M520.8068931989615,295.02509562871734h5v4.974904371282662h-5Z" fill="#4c78a8"/><path aria-label="datum: Jan 01, 2013; podil: 0.000218197687105" role="graphics-symbol" aria-roledescription="bar" d="M526.3321989663235,297.48233437956327h5v2.5176656204367305h-5Z" fill="#4c78a8"/><path aria-label="datum: Jan 01, 2014; podil: 0.0000499650244829" role="graphics-symbol" aria-roledescription="bar" d="M531.8424082698403,299.4234804867362h5v0.5765195132638041h-5Z" fill="#4c78a8"/><path aria-label="datum: Jan 01, 2022; podil: 0.0053527243347" role="graphics-symbol" aria-roledescription="bar" d="M575.9542756256654,238.23779613811428h5v61.76220386188572h-5Z" fill="#4c78a8"/><path aria-label="datum: Jan 01, 2023; podil: 0.00399724920485" role="graphics-symbol" aria-roledescription="bar" d="M581.4644849291823,253.87789379021217h5v46.12210620978783h-5Z" fill="#4c78a8"/><path aria-label="datum: Jan 01, 2024; podil: 0.00234264497878" role="graphics-symbol" aria-roledescription="bar" d="M586.974694232699,272.96948101403547h5v27.030518985964534h-5Z" fill="#4c78a8"/><path aria-label="datum: Jan 01, 2025; podil: 0.00261424239255" role="graphics-symbol" aria-roledescription="bar" d="M592.5000000000612,269.8356647012926h5v30.164335298707385h-5Z" fill="#4c78a8"/></g></g><path class="foreground" aria-hidden="true" d="" display="none"/></g></g></g></svg>