<svg xmlns="http://www.w3.org/2000/svg" xmlns:xlink="http://www.w3.org/1999/xlink" version="1.1" class="marks" width="658" height="347" viewBox="0 0 658 347"><rect width="658" height="347" fill="white"/><g fill="none" stroke-miterlimit="10" transform="translate(53,10)"><g class="mark-group role-frame root" role="graphics-object" aria-roledescription="group mark container"><g transform="translate(0,0)"><path class="background" aria-hidden="true" d="M0.5,0.5h600v300h-600Z" stroke="#ddd"/><g><g class="mark-group role-axis" aria-hidden="true"><g transform="translate(0.5,300.5)"><path class="background" aria-hidden="true" d="M0,0h0v0h0Z" pointer-events="none"/><g><g class="mark-rule role-axis-grid" pointer-events="none"><line transform="translate(11,-300)" x2="0" y2="300" stroke="#ddd" stroke-width="1" opacity="1"/><line transform="translate(66,-300)" x2="0" y2="300" stroke="#ddd" stroke-width="1" opacity="1"/><line transform="translate(122,-300)" x2="0" y2="300" stroke="#ddd" stroke-width="1" opacity="1"/><line transform="translate(178,-300)" x2="0" y2="300" stroke="#ddd" stroke-width="1" opacity="1"/><line transform="translate(233,-300)" x2="0" y2="300" stroke="#ddd" stroke-width="1" opacity="1"/><line transform="translate(289,-300)" x2="0" y2="300" stroke="#ddd" stroke-width="1" opacity="1"/><line transform="translate(345,-300)" x2="0" y2="300" stroke="#ddd" stroke-width="1" opacity="1"/><line transform="translate(400,-300)" x2="0" y2="300" stroke="#ddd" stroke-width="1" opacity="1"/><line transform="translate(456,-300)" x2="0" y2="300" stroke="#ddd" stroke-width="1" opacity="1"/><line transform="translate(512,-300)" x2="0" y2="300" stroke="#ddd" stroke-width="1" opacity="1"/><line transform="translate(567,-300)" x2="0" y2="300" stroke="#ddd" stroke-width="1" opacity="1"/></g></g><path class="foreground" aria-hidden="true" d="" pointer-events="none" display="none"/></g></g><g class="mark-group role-axis" aria-hidden="true"><g transform="translate(0.5,0.5)"><path class="background" aria-hidden="true" d="M0,0h0v0h0Z" pointer-events="none"/><g><g class="mark-rule role-axis-grid" pointer-events="none"><line transform="translate(0,300)" x2="600" y2="0" stroke="#ddd" stroke-width="1" opacity="1"/><line transform="translate(0,267)" x2="600" y2="0" stroke="#ddd" stroke-width="1" opacity="1"/><line transform="translate(0,233)" x2="600" y2="0" stroke="#ddd" stroke-width="1" opacity="1"/><line transform="translate(0,200)" x2="600" y2="0" stroke="#ddd" stroke-width="1" opacity="1"/><line transform="translate(0,167)" x2="600" y2="0" stroke="#ddd" stroke-width="1" opacity="1"/><line transform="translate(0,133)" x2="600" y2="0" stroke="#ddd" stroke-width="1" opacity="1"/><line transform="translate(0,100)" x2="600" y2="0" stroke="#ddd" stroke-width="1" opacity="1"/><line transform="translate(0,67)" x2="600" y2="0" stroke="#ddd" stroke-width="1" opacity="1"/><line transform="translate(0,33)" x2="600" y2="0" stroke="#ddd" stroke-width="1" opacity="1"/><line transform="translate(0,0)" x2="600" y2="0" stroke="#ddd" stroke-width="1" opacity="1"/></g></g><path class="foreground" aria-hidden="true" d="" pointer-events="none" display="none"/></g></g><g class="mark-group role-axis" role="graphics-symbol" aria-roledescription="axis" aria-label="X-axis titled 'datum' for a time scale with values from Wednesday, 06 February 1918, 9:21:21 PM to Tuesday, 25 November 2025, 2:38:38 AM"><g transform="translate(0.5,300.5)"><path class="background" aria-hidden="true" d="M0,0h0v0h0Z" pointer-events="none"/><g><g class="mark-rule role-axis-tick" pointer-events="none"><line transform="translate(11,0)" x2="0" y2="5" stroke="#888" stroke-width="1" opacity="1"/><line transform="translate(66,0)" x2="0" y2="5" stroke="#888" stroke-width="1" opacity="1"/><line transform="translate(122,0)" x2="0" y2="5" stroke="#888" stroke-width="1" opacity="1"/><line transform="translate(178,0)" x2="0" y2="5" stroke="#888" stroke-width="1" opacity="1"/><line transform="translate(233,0)" x2="0" y2="5" stroke="#888" stroke-width="1" opacity="1"/><line transform="translate(289,0)" x2="0" y2="5" stroke="#888" stroke-width="1" opacity="1"/><line transform="translate(345,0)" x2="0" y2="5" stroke="#888" stroke-width="1" opacity="1"/><line transform="translate(400,0)" x2="0" y2="5" stroke="#888" stroke-width="1" opacity="1"/><line transform="translate(456,0)" x2="0" y2="5" stroke="#888" stroke-width="1" opacity="1"/><line transform="translate(512,0)" x2="0" y2="5" stroke="#888" stroke-width="1" opacity="1"/><line transform="translate(567,0)" x2="0" y2="5" stroke="#888" stroke-width="1" opacity="1"/></g><g class="mark-text role-axis-label" pointer-events="none"><text text-anchor="middle" transform="translate(10.56215615878176,15)" font-family="sans-serif" font-size="10px" fill="#000" opacity="1">1920</text><text text-anchor="middle" transform="translate(66.229434098707,15)" font-family="sans-serif" font-size="10px" fill="#000" opacity="1">1930</text><text text-anchor="middle" transform="translate(121.88147325463557,15)" font-family="sans-serif" font-size="10px" fill="#000" opacity="1">1940</text><text text-anchor="middle" transform="translate(177.5487511945608,15)" font-family="sans-serif" font-size="10px" fill="#000" opacity="1">1950</text><text text-anchor="middle" transform="translate(233.20079035048937,15)" font-family="sans-serif" font-size="10px" fill="#000" opacity="1">1960</text><text text-anchor="middle" transform="translate(288.8680682904146,15)" font-family="sans-serif" font-size="10px" fill="#000" opacity="1">1970</text><text text-anchor="middle" transform="translate(344.52010744634316,15)" font-family="sans-serif" font-size="10px" fill="#000" opacity="1">1980</text><text text-anchor="middle" transform="translate(400.18738538626843,15)" font-family="sans-serif" font-size="10px" fill="#000" opacity="1">1990</text><text text-anchor="middle" transform="translate(455.83942454219704,15)" font-family="sans-serif" font-size="10px" fill="#000" opacity="1">2000</text><text text-anchor="middle" transform="translate(511.5067024821222,15)" font-family="sans-serif" font-size="10px" fill="#000" opacity="1">2010</text><text text-anchor="middle" transform="translate(567.1587416380507,15)" font-family="sans-serif" font-size="10px" fill="#000" opacity="1">2020</text></g><g class="mark-rule role-axis-domain" pointer-events="none"><line transform="translate(0,0)" x2="600" y2="0" stroke="#888" stroke-width="1" opacity="1"/></g><g class="mark-text role-axis-title" pointer-events="none"><text text-anchor="middle" transform="translate(300,30)" font-family="sans-serif" font-size="11px" font-weight="bold" fill="#000" opacity="1">datum</text></g></g><path class="foreground" aria-hidden="true" d="" pointer-events="none" display="none"/></g></g><g class="mark-group role-axis" role="graphics-symbol" aria-roledescription="axis" aria-label="Y-axis titled 'podil' for a linear scale with values from 0.00 to 0.04"><g transform="translate(0.5,0.5)"><path class="background" aria-hidden="true" d="M0,0h0v0h0Z" pointer-events="none"/><g><g class="mark-rule role-axis-tick" pointer-events="none"><line transform="translate(0,300)" x2="-5" y2="0" stroke="#888" stroke-width="1" opacity="1"/><line transform="translate(0,267)" x2="-5" y2="0" stroke="#888" stroke-width="1" opacity="1"/><line transform="translate(0,233)" x2="-5" y2="0" stroke="#888" stroke-width="1" opacity="1"/><line transform="translate(0,200)" x2="-5" y2="0" stroke="#888" stroke-width="1" opacity="1"/><line transform="translate(0,167)" x2="-5" y2="0" stroke="#888" stroke-width="1" opacity="1"/><line transform="translate(0,133)" x2="-5" y2="0" stroke="#888" stroke-width="1" opacity="1"/><line transform="translate(0,100)" x2="-5" y2="0" stroke="#888" stroke-width="1" opacity="1"/><line transform="translate(0,67)" x2="-5" y2="0" stroke="#888" stroke-width="1" opacity="1"/><line transform="translate(0,33)" x2="-5" y2="0" stroke="#888" stroke-width="1" opacity="1"/><line transform="translate(0,0)" x2="-5" y2="0" stroke="#888" stroke-width="1" opacity="1"/></g><g class="mark-text role-axis-label" pointer-events="none"><text text-anchor="end" transform="translate(-7,303)" font-family="sans-serif" font-size="10px" fill="#000" opacity="1">0.000</text><text text-anchor="end" transform="translate(-7,269.66666666666663)" font-family="sans-serif" font-size="10px" fill="#000" opacity="1">0.005</text><text text-anchor="end" transform="translate(-7,236.33333333333334)" font-family="sans-serif" font-size="10px" fill="#000" opacity="1">0.010</text><text text-anchor="end" transform="translate(-7,203.00000000000003)" font-family="sans-serif" font-size="10px" fill="#000" opacity="1">0.015</text><text text-anchor="end" transform="translate(-7,169.66666666666669)" font-family="sans-serif" font-size="10px" fill="#000" opacity="1">0.020</text><text text-anchor="end" transform="translate(-7,136.33333333333331)" font-family="sans-serif" font-size="10px" fill="#000" opacity="1">0.025</text><text text-anchor="end" transform="translate(-7,103.00000000000001)" font-family="sans-serif" font-size="10px" fill="#000" opacity="1">0.030</text><text text-anchor="end" transform="translate(-7,69.66666666666663)" font-family="sans-serif" font-size="10px" fill="#000" opacity="1">0.035</text><text text-anchor="end" transform="translate(-7,36.333333333333314)" font-family="sans-serif" font-size="10px" fill="#000" opacity="1">0.040</text><text text-anchor="end" transform="translate(-7,3)" font-family="sans-serif" font-size="10px" fill="#000" opacity="1">0.045</text></g><g class="mark-rule role-axis-domain" pointer-events="none"><line transform="translate(0,300)" x2="0" y2="-300" stroke="#888" stroke-width="1" opacity="1"/></g><g class="mark-text role-axis-title" pointer-events="none"><text text-anchor="middle" transform="translate(-36.0244140625,150) rotate(-90) translate(0,-2)" font-family="sans-serif" font-size="11px" font-weight="bold" fill="#000" opacity="1">podil</text></g></g><path class="foreground" aria-hidden="true" d="" pointer-events="none" display="none"/></g></g><g class="mark-rect role-mark marks" role="graphics-object" aria-roledescription="rect mark container"><path aria-label="datum: Jan 01, 1919; podil: 0.000253421186011" role="graphics-symbol" aria-roledescription="bar" d="M2.4999999999882414,298.31052542659233h5v1.689474573407665h-5Z" fill="#4c78a8"/><path aria-label="datum: Jan 01, 1920; podil: 0.0021216407355" role="graphics-symbol" aria-roledescription="bar" d="M8.06215615878176,285.85572842998585h5v14.144271570014155h-5Z" fill="#4c78a8"/><path aria-label="datum: Jan 01, 1921; podil: 0.00179833012203" role="graphics-symbol" aria-roledescription="bar" d="M13.639551101571968,288.011132519803h5v11.988867480196973h-5Z" fill="#4c78a8"/><path aria-label="datum: Jan 01, 1922; podil: 0.00422163588391" role="graphics-symbol" aria-roledescription="bar" d="M19.201707260365488,271.8557607739666h5v28.144239226033392h-5Z" fill="#4c78a8"/><path aria-label="datum: Jan 01, 1923; podil: 0.00306044376435" role="graphics-symbol" aria-roledescription="bar" d="M24.763863419159,279.5970415710278h5v20.402958428972227h-5Z" fill="#4c78a8"/><path aria-label="datum: Jan 01, 1924; podil: 0.0024973242954" role="graphics-symbol" aria-roledescription="bar" d="M30.326019577952522,283.35117136401476h5v16.64882863598524h-5Z" fill="#4c78a8"/><path aria-label="datum: Jan 01, 1925; podil: 0.00264258973794" role="graphics-symbol" aria-roledescription="bar" d="M35.903414520742736,282.3827350803788h5v17.61726491962122h-5Z" fill="#4c78a8"/><path aria-label="datum: Jan 01, 1926; podil: 0.00281729821102" role="graphics-symbol" aria-roledescription="bar" d="M41.46557067953625,281.21801192656244h5v18.78198807343756h-5Z" fill="#4c78a8"/><path aria-label="datum: Jan 01, 1927; podil: 0.00454545454545" role="graphics-symbol" aria-roledescription="bar" d="M47.02772683832976,269.6969696969697h5v30.30303030303031h-5Z" fill="#4c78a8"/><path aria-label="datum: Jan 01, 1928; podil: 0.00336643662683" role="graphics-symbol" aria-roledescription="bar" d="M52.58988299712328,277.5570891544633h5v22.442910845536687h-5Z" fill="#4c78a8"/><path aria-label="datum: Jan 01, 1929; podil: 0.00217155266015" role="graphics-symbol" aria-roledescription="bar" d="M58.1672779399135,285.5229822656533h5v14.477017734346703h-5Z" fill="#4c78a8"/><path aria-label="datum: Jan 01, 1930; podil: 0.00349603334678" role="graphics-symbol" aria-roledescription="bar" d="M63.729434098707,276.69311102146924h5v23.306888978530765h-5Z" fill="#4c78a8"/><path aria-label="datum: Jan 01, 1931; podil: 0.00583138953682" role="graphics-symbol" aria-roledescription="bar" d="M69.29159025750053,261.12406975452626h5v38.87593024547374h-5Z" fill="#4c78a8"/><path aria-label="datum: Jan 01, 1932; podil: 0.0175683212493" role="graphics-symbol" aria-roledescription="bar" d="M74.85374641629403,182.87785833798105h5v117.12214166201895h-5Z" fill="#4c78a8"/><path aria-label="datum: Jan 01, 1933; podil: 0.0165065287017" role="graphics-symbol" aria-roledescription="bar" d="M80.43114135908425,189.95647532232897h5v110.04352467767103h-5Z" fill="#4c78a8"/><path aria-label="datum: Jan 01, 1934; podil: 0.0141887723627" role="graphics-symbol" aria-roledescription="bar" d="M85.99329751787776,205.40818424840634h5v94.59181575159366h-5Z" fill="#4c78a8"/><path aria-label="datum: Jan 01, 1935; podil: 0.00527786401739" role="graphics-symbol" aria-roledescription="bar" d="M91.55545367667128,264.814239884094h5v35.18576011590602h-5Z" fill="#4c78a8"/><path aria-label="datum: Jan 01, 1936; podil: 0.00565307944064" role="graphics-symbol" aria-roledescription="bar" d="M97.1176098354648,262.3128037290489h5v37.68719627095112h-5Z" fill="#4c78a8"/><path aria-label="datum: Jan 01, 1937; podil: 0.00226757369615" role="graphics-symbol" aria-roledescription="bar" d="M102.69500477825501,284.8828420256992h5v15.117157974300824h-5Z" fill="#4c78a8"/><path aria-label="datum: Jan 01, 1938; podil: 0.0063371356147" role="graphics-symbol" aria-roledescription="bar" d="M108.25716093704852,257.75242923531897h5v42.24757076468103h-5Z" fill="#4c78a8"/><path aria-label="datum: Jan 01, 1945; podil: 0.00280898876404" role="graphics-symbol" aria-roledescription="bar" d="M147.22273161659652,281.27340823970036h5v18.72659176029964h-5Z" fill="#4c78a8"/><path aria-label="datum: Jan 01, 1946; podil: 0.01142041399" role="graphics-symbol" aria-roledescription="bar" d="M152.78488777539005,223.86390673328575h5v76.13609326671425h-5Z" fill="#4c78a8"/><path aria-label="datum: Jan 01, 1947; podil: 0.0141072148327" role="graphics-symbol" aria-roledescription="bar" d="M158.34767888351675,205.95190111514174h5v94.04809888485826h-5Z" fill="#4c78a8"/><path aria-label="datum: Jan 01, 1948; podil: 0.00479233226837" role="graphics-symbol" aria-roledescription="bar" d="M163.90920009297707,268.0511182108626h5v31.948881789137374h-5Z" fill="#4c78a8"/><path aria-label="datum: Jan 01, 1949; podil: 0.0036496350365" role="graphics-symbol" aria-roledescription="bar" d="M169.48659503576732,275.66909975669097h5v24.33090024330903h-5Z" fill="#4c78a8"/><path aria-label="datum: Jan 01, 1950; podil: 0.0045871559633" role="graphics-symbol" aria-roledescription="bar" d="M175.0487511945608,269.4189602446483h5v30.581039755351696h-5Z" fill="#4c78a8"/><path aria-label="datum: Jan 01, 1951; podil: 0.0109589041096" role="graphics-symbol" aria-roledescription="bar" d="M180.61090735335432,226.9406392694064h5v73.0593607305936h-5Z" fill="#4c78a8"/><path aria-label="datum: Jan 01, 1952; podil: 0.00258397932817" role="graphics-symbol" aria-roledescription="bar" d="M186.17306351214782,282.7734711455642h5v17.2265288544358h-5Z" fill="#4c78a8"/><path aria-label="datum: Jan 01, 1953; podil: 0.01393728223" role="graphics-symbol" aria-roledescription="bar" d="M191.75045845493807,207.08478513356562h5v92.91521486643438h-5Z" fill="#4c78a8"/><path aria-label="datum: Jan 01, 1956; podil: 0.00306748466258" role="graphics-symbol" aria-roledescription="bar" d="M208.43692693131862,279.55010224948876h5v20.44989775051124h-5Z" fill="#4c78a8"/><path aria-label="datum: Jan 01, 1959; podil: 0.00332225913621" role="graphics-symbol" aria-roledescription="bar" d="M225.13863419169584,277.85160575858254h5v22.148394241417463h-5Z" fill="#4c78a8"/><path aria-label="datum: Jan 01, 1966; podil: 0.0038240917782" role="graphics-symbol" aria-roledescription="bar" d="M264.10420487124384,274.50605481198215h5v25.493945188017847h-5Z" fill="#4c78a8"/><path aria-label="datum: Jan 01, 1967; podil: 0.0171755725191" role="graphics-symbol" aria-roledescription="bar" d="M269.66636103003736,185.49618320610688h5v114.50381679389312h-5Z" fill="#4c78a8"/><path aria-label="datum: Jan 01, 1968; podil: 0.0155077538769" role="graphics-symbol" aria-roledescription="bar" d="M275.2285171888309,196.61497415374356h5v103.38502584625644h-5Z" fill="#4c78a8"/><path aria-label="datum: Jan 01, 1969; podil: 0.0226468506723" role="graphics-symbol" aria-roledescription="bar" d="M280.8059121316211,149.0209955178108h5v150.9790044821892h-5Z" fill="#4c78a8"/><path aria-label="datum: Jan 01, 1970; podil: 0.0375" role="graphics-symbol" aria-roledescription="bar" d="M286.3680682904146,49.999999999999986h5v250h-5Z" fill="#4c78a8"/><path aria-label="datum: Jan 01, 1971; podil: 0.0196531791908" role="graphics-symbol" aria-roledescription="bar" d="M291.93022444920814,168.97880539499036h5v131.02119460500964h-5Z" fill="#4c78a8"/><path aria-label="datum: Jan 01, 1972; podil: 0.00166389351082" role="graphics-symbol" aria-roledescription="bar" d="M297.49238060800167,288.9073765945646h5v11.092623405435404h-5Z" fill="#4c78a8"/><path aria-label="datum: Jan 01, 1973; podil: 0.00584112149533" role="graphics-symbol" aria-roledescription="bar" d="M303.06977555079186,261.05919003115264h5v38.94080996884736h-5Z" fill="#4c78a8"/><path aria-label="datum: Jan 01, 1974; podil: 0.00871731008717" role="graphics-symbol" aria-roledescription="bar" d="M308.6319317095854,241.884599418846h5v58.115400581154006h-5Z" fill="#4c78a8"/><path aria-label="datum: Jan 01, 1975; podil: 0.0207650273224" role="graphics-symbol" aria-roledescription="bar" d="M314.1940878683789,161.5664845173042h5v138.4335154826958h-5Z" fill="#4c78a8"/><path aria-label="datum: Jan 01, 1976; podil: 0.012084592145" role="graphics-symbol" aria-roledescription="bar" d="M319.7562440271724,219.43605236656595h5v80.56394763343405h-5Z" fill="#4c78a8"/><path aria-label="datum: Jan 01, 1977; podil: 0.00641848523748" role="graphics-symbol" aria-roledescription="bar" d="M325.33363896996264,257.21009841677363h5v42.78990158322637h-5Z" fill="#4c78a8"/><path aria-label="datum: Jan 01, 1978; podil: 0.0072202166065" role="graphics-symbol" aria-roledescription="bar" d="M330.8957951287561,251.86522262334537h5v48.134777376654625h-5Z" fill="#4c78a8"/><path aria-label="datum: Jan 01, 1979; podil: 0.00904977375566" role="graphics-symbol" aria-roledescription="bar" d="M336.4579512875497,239.6681749622926h5v60.331825037707404h-5Z" fill="#4c78a8"/><path aria-label="datum: Jan 01, 1980; podil: 0.00540540540541" role="graphics-symbol" aria-roledescription="bar" d="M342.02010744634316,263.963963963964h5v36.03603603603602h-5Z" fill="#4c78a8"/><path aria-label="datum: Jan 01, 1981; podil: 0.00191938579655" role="graphics-symbol" aria-roledescription="bar" d="M347.5975023891334,287.2040946896993h5v12.795905310300725h-5Z" fill="#4c78a8"/><path aria-label="datum: Jan 01, 1982; podil: 0.00518134715026" role="graphics-symbol" aria-roledescription="bar" d="M353.15965854792694,265.45768566493956h5v34.54231433506044h-5Z" fill="#4c78a8"/><path aria-label="datum: Jan 01, 1983; podil: 0.00347624565469" role="graphics-symbol" aria-roledescription="bar" d="M358.7218147067204,276.8250289687138h5v23.17497103128619h-5Z" fill="#4c78a8"/><path aria-label="datum: Jan 01, 1984; podil: 0.00142247510669" role="graphics-symbol" aria-roledescription="bar" d="M364.28397086551394,290.51683262209576h5v9.483167377904238h-5Z" fill="#4c78a8"/><path aria-label="datum: Jan 01, 1985; podil: 0.00153139356815" role="graphics-symbol" aria-roledescription="bar" d="M369.86136580830413,289.7907095456866h5v10.209290454313418h-5Z" fill="#4c78a8"/><path aria-label="datum: Jan 01, 1987; podil: 0.00298507462687" role="graphics-symbol" aria-roledescription="bar" d="M380.9856781258912,280.0995024875622h5v19.900497512437823h-5Z" fill="#4c78a8"/><path aria-label="datum: Jan 01, 1988; podil: 0.0131291028446" role="graphics-symbol" aria-roledescription="bar" d="M386.5478342846847,212.47264770240702h5v87.52735229759298h-5Z" fill="#4c78a8"/><path aria-label="datum: Jan 01, 1989; podil: 0.0169863013699" role="graphics-symbol" aria-roledescription="bar" d="M392.12522922747496,186.7579908675799h5v113.2420091324201h-5Z" fill="#4c78a8"/><path aria-label="datum: Jan 01, 1990; podil: 0.00647536820721" role="graphics-symbol" aria-roledescription="bar" d="M397.68738538626843,256.8308786185881h5v43.16912138141191h-5Z" fill="#4c78a8"/><path aria-label="datum: Jan 01, 1991; podil: 0.0041874698019" role="graphics-symbol" aria-roledescription="bar" d="M403.24954154506196,272.0835346539969h5v27.916465346003122h-5Z" fill="#4c78a8"/><path aria-label="datum: Jan 01, 1992; podil: 0.00261264520278" role="graphics-symbol" aria-roledescription="bar" d="M408.81169770385543,282.58236531479025h5v17.417634685209748h-5Z" fill="#4c78a8"/><path aria-label="datum: Jan 01, 1993; podil: 0.00426218177629" role="graphics-symbol" aria-roledescription="bar" d="M414.3890926466457,271.585454824713h5v28.414545175287003h-5Z" fill="#4c78a8"/><path aria-label="datum: Jan 01, 1994; podil: 0.00555324170485" role="graphics-symbol" aria-roledescription="bar" d="M419.95124880543915,262.97838863436533h5v37.02161136563467h-5Z" fill="#4c78a8"/><path aria-label="datum: Jan 01, 1995; podil: 0.00586678937076" role="graphics-symbol" aria-roledescription="bar" d="M425.51340496423273,260.8880708616128h5v39.11192913838721h-5Z" fill="#4c78a8"/><path aria-label="datum: Jan 01, 1996; podil: 0.00853485064011" role="graphics-symbol" aria-roledescription="bar" d="M431.0755611230262,243.10099573257466h5v56.89900426742534h-5Z" fill="#4c78a8"/><path aria-label="datum: Jan 01, 1997; podil: 0.0083044982699" role="graphics-symbol" aria-roledescription="bar" d="M436.65295606581645,244.63667820069202h5v55.36332179930798h-5Z" fill="#4c78a8"/><path aria-label="datum: Jan 01, 1998; podil: 0.00823622185227" role="graphics-symbol" aria-roledescription="bar" d="M442.21511222461,245.0918543181752h5v54.908145681824806h-5Z" fill="#4c78a8"/><path aria-label="datum: Jan 01, 1999; podil: 0.00337699549734" role="graphics-symbol" aria-roledescription="bar" d="M447.77726838340345,277.4866966844044h5v22.51330331559558h-5Z" fill="#4c78a8"/><path aria-label="datum: Jan 01, 2000; podil: 0.00279825886115" role="graphics-symbol" aria-roledescription="bar" d="M453.33942454219704,281.34494092564626h5v18.655059074353744h-5Z" fill="#4c78a8"/><path aria-label="datum: Jan 01, 2001; podil: 0.00305699481865" role="graphics-symbol" aria-roledescription="bar" d="M458.9168194849872,279.62003454231433h5v20.37996545768567h-5Z" fill="#4c78a8"/><path aria-label="datum: Jan 01, 2002; podil: 0.00341847265222" role="graphics-symbol" aria-roledescription="bar" d="M464.4789756437807,277.21018231854146h5v22.789817681458544h-5Z" fill="#4c78a8"/><path aria-label="datum: Jan 01, 2003; podil: 0.00262805810398" role="graphics-symbol" aria-roledescription="bar" d="M470.0411318025742,282.4796126401631h5v17.52038735983689h-5Z" fill="#4c78a8"/><path aria-label="datum: Jan 01, 2004; podil: 0.00402289958224" role="graphics-symbol" aria-roledescription="bar" d="M475.60328796136776,273.180669451751h5v26.819330548249013h-5Z" fill="#4c78a8"/><path aria-label="datum: Jan 01, 2005; podil: 0.00184068841747" role="graphics-symbol" aria-roledescription="bar" d="M481.180682904158,287.72874388354575h5v12.271256116454254h-5Z" fill="#4c78a8"/><path aria-label="datum: Jan 01, 2006; podil: 0.00277940315974" role="graphics-symbol" aria-roledescription="bar" d="M486.7428390629515,281.4706456017164h5v18.5293543982836h-5Z" fill="#4c78a8"/><path aria-label="datum: Jan 01, 2007; podil: 0.00717402558982" role="graphics-symbol" aria-roledescription="bar" d="M492.30499522174495,252.17316273451175h5v47.82683726548825h-5Z" fill="#4c78a8"/><path aria-label="datum: Jan 01, 2008; podil: 0.00956254906159" role="graphics-symbol" aria-roledescription="bar" d="M497.86715138053853,236.2496729227622h5v63.75032707723781h-5Z" fill="#4c78a8"/><path aria-label="datum: Jan 01, 2009; podil: 0.00402499098883" role="graphics-symbol" aria-roledescription="bar" d="M503.4445463233287,273.16672674115904h5v26.83327325884096h-5Z" fill="#4c78a8"/><path aria-label="datum: Jan 01, 2010; podil: 0.00170953454037" role="graphics-symbol" aria-roledescription="bar" d="M509.0067024821222,288.60310306421115h5v11.396896935788845h-5Z" fill="#4c78a8"/><path aria-label="datum: Jan 01, 2011; podil: 0.00444294471627" role="graphics-symbol" aria-roledescription="bar" d="M514.5688586409158,270.3803685581988h5v29.619631441801175h-5Z" fill="#4c78a8"/><path aria-label="datum: Jan 01, 2012; podil: 0.00923160467011" role="graphics-symbol" aria-roledescription="bar" d="M520.1310147997093,238.4559688659607h5v61.5440311340393h-5Z" fill="#4c78a8"/><path aria-label="datum: Jan 01, 2013; podil: 0.00273251695173" role="graphics-symbol" aria-roledescription="bar" d="M525.7084097424995,281.7832203218298h5v18.216779678170212h-5Z" fill="#4c78a8"/><path aria-label="datum: Jan 01, 2014; podil: 0.00269476926038" role="graphics-symbol" aria-roledescription="bar" d="M531.270565901293,282.0348715974528h5v17.96512840254718h-5Z" fill="#4c78a8"/><path aria-label="datum: Jan 01, 2015; podil: 0.00160180910204" role="graphics-symbol" aria-roledescription="bar" d="M536.8327220600864,289.3212726530356h5v10.678727346964422h-5Z" fill="#4c78a8"/><path aria-label="datum: Jan 01, 2016; podil: 0.0017524151876" role="graphics-symbol" aria-roledescription="bar" d="M542.3948782188801,288.31723208267806h5v11.68276791732194h-5Z" fill="#4c78a8"/><path aria-label="datum: Jan 01, 2017; podil: 0.00179694519317" role="graphics-symbol" aria-roledescription="bar" d="M547.9722731616703,288.02036537885596h5v11.979634621144044h-5Z" fill="#4c78a8"/><path aria-label="datum: Jan 01, 2018; podil: 0.00233213487513" role="graphics-symbol" aria-roledescription="bar" d="M553.5344293204638,284.4524341657759h5v15.547565834224088h-5Z" fill="#4c78a8"/><path aria-label="datum: Jan 01, 2019; podil: 0.00428265524625" role="graphics-symbol" aria-roledescription="bar" d="M559.0965854792573,271.44896502498216h5v28.551034975017842h-5Z" fill="#4c78a8"/><path aria-label="datum: Jan 01, 2020; podil: 0.00373324283048" role="graphics-symbol" aria-roledescription="bar" d="M564.6587416380507,275.1117144634878h5v24.888285536512228h-5Z" fill="#4c78a8"/><path aria-label="datum: Jan 01, 2021; podil: 0.00431205392546" role="graphics-symbol" aria-roledescription="bar" d="M570.236136580841,271.2529738302934h5v28.7470261697066h-5Z" fill="#4c78a8"/><path aria-label="datum: Jan 01, 2022; podil: 0.030496590145" role="graphics-symbol" aria-roledescription="bar" d="M575.7982927396345,96.68939903307398h5v203.31060096692602h-5Z" fill="#4c78a8"/><path aria-label="datum: Jan 01, 2023; podil: 0.0444729356144" role="graphics-symbol" aria-roledescription="bar" d="M581.360448898428,3.5137625706158193h5v296.4862374293842h-5Z" fill="#4c78a8"/><path aria-label="datum: Jan 01, 2024; podil: 0.0248675935121" role="graphics-symbol" aria-roledescription="bar" d="M586.9226050572215,134.21604325278602h5v165.78395674721398h-5Z" fill="#4c78a8"/><path aria-label="datum: Jan 01, 2025; podil: 0.0115435985499" role="graphics-symbol" aria-roledescription="bar" d="M592.5000000000117,223.04267633403293h5v76.95732366596707h-5Z" fill="#4c78a8"/></g></g><path class="foreground" aria-hidden="true" d="" display="none"/></g></g></g></svg>