<svg xmlns="http://www.w3.org/2000/svg" xmlns:xlink="http://www.w3.org/1999/xlink" version="1.1" class="marks" width="658" height="347" viewBox="0 0 658 347"><rect width="658" height="347" fill="white"/><g fill="none" stroke-miterlimit="10" transform="translate(53,10)"><g class="mark-group role-frame root" role="graphics-object" aria-roledescription="group mark container"><g transform="translate(0,0)"><path class="background" aria-hidden="true" d="M0.5,0.5h600v300h-600Z" stroke="#ddd"/><g><g class="mark-group role-axis" aria-hidden="true"><g transform="translate(0.5,300.5)"><path class="background" aria-hidden="true" d="M0,0h0v0h0Z" pointer-events="none"/><g><g class="mark-rule role-axis-grid" pointer-events="none"><line transform="translate(11,-300)" x2="0" y2="300" stroke="#ddd" stroke-width="1" opacity="1"/><line transform="translate(66,-300)" x2="0" y2="300" stroke="#ddd" stroke-width="1" opacity="1"/><line transform="translate(122,-300)" x2="0" y2="300" stroke="#ddd" stroke-width="1" opacity="1"/><line transform="translate(178,-300)" x2="0" y2="300" stroke="#ddd" stroke-width="1" opacity="1"/><line transform="translate(233,-300)" x2="0" y2="300" stroke="#ddd" stroke-width="1" opacity="1"/><line transform="translate(289,-300)" x2="0" y2="300" stroke="#ddd" stroke-width="1" opacity="1"/><line transform="translate(345,-300)" x2="0" y2="300" stroke="#ddd" stroke-width="1" opacity="1"/><line transform="translate(400,-300)" x2="0" y2="300" stroke="#ddd" stroke-width="1" opacity="1"/><line transform="translate(456,-300)" x2="0" y2="300" stroke="#ddd" stroke-width="1" opacity="1"/><line transform="translate(512,-300)" x2="0" y2="300" stroke="#ddd" stroke-width="1" opacity="1"/><line transform="translate(567,-300)" x2="0" y2="300" stroke="#ddd" stroke-width="1" opacity="1"/></g></g><path class="foreground" aria-hidden="true" d="" pointer-events="none" display="none"/></g></g><g class="mark-group role-axis" aria-hidden="true"><g transform="translate(0.5,0.5)"><path class="background" aria-hidden="true" d="M0,0h0v0h0Z" pointer-events="none"/><g><g class="mark-rule role-axis-grid" pointer-events="none"><line transform="translate(0,300)" x2="600" y2="0" stroke="#ddd" stroke-width="1" opacity="1"/><line transform="translate(0,270)" x2="600" y2="0" stroke="#ddd" stroke-width="1" opacity="1"/><line transform="translate(0,240)" x2="600" y2="0" stroke="#ddd" stroke-width="1" opacity="1"/><line transform="translate(0,210)" x2="600" y2="0" stroke="#ddd" stroke-width="1" opacity="1"/><line transform="translate(0,180)" x2="600" y2="0" stroke="#ddd" stroke-width="1" opacity="1"/><line transform="translate(0,150)" x2="600" y2="0" stroke="#ddd" stroke-width="1" opacity="1"/><line transform="translate(0,120)" x2="600" y2="0" stroke="#ddd" stroke-width="1" opacity="1"/><line transform="translate(0,90)" x2="600" y2="0" stroke="#ddd" stroke-width="1" opacity="1"/><line transform="translate(0,60)" x2="600" y2="0" stroke="#ddd" stroke-width="1" opacity="1"/><line transform="translate(0,30)" x2="600" y2="0" stroke="#ddd" stroke-width="1" opacity="1"/><line transform="translate(0,0)" x2="600" y2="0" stroke="#ddd" stroke-width="1" opacity="1"/></g></g><path class="foreground" aria-hidden="true" d="" pointer-events="none" display="none"/></g></g><g class="mark-group role-axis" role="graphics-symbol" aria-roledescription="axis" aria-label="X-axis titled 'datum' for a time scale with values from Wednesday, 06 February 1918, 9:21:21 PM to Tuesday, 25 November 2025, 2:38:38 AM"><g transform="translate(0.5,300.5)"><path class="background" aria-hidden="true" d="M0,0h0v0h0Z" pointer-events="none"/><g><g class="mark-rule role-axis-tick" pointer-events="none"><line transform="translate(11,0)" x2="0" y2="5" stroke="#888" stroke-width="1" opacity="1"/><line transform="translate(66,0)" x2="0" y2="5" stroke="#888" stroke-width="1" opacity="1"/><line transform="translate(122,0)" x2="0" y2="5" stroke="#888" stroke-width="1" opacity="1"/><line transform="translate(178,0)" x2="0" y2="5" stroke="#888" stroke-width="1" opacity="1"/><line transform="translate(233,0)" x2="0" y2="5" stroke="#888" stroke-width="1" opacity="1"/><line transform="translate(289,0)" x2="0" y2="5" stroke="#888" stroke-width="1" opacity="1"/><line transform="translate(345,0)" x2="0" y2="5" stroke="#888" stroke-width="1" opacity="1"/><line transform="translate(400,0)" x2="0" y2="5" stroke="#888" stroke-width="1" opacity="1"/><line transform="translate(456,0)" x2="0" y2="5" stroke="#888" stroke-width="1" opacity="1"/><line transform="translate(512,0)" x2="0" y2="5" stroke="#888" stroke-width="1" opacity="1"/><line transform="translate(567,0)" x2="0" y2="5" stroke="#888" stroke-width="1" opacity="1"/></g><g class="mark-text role-axis-label" pointer-events="none"><text text-anchor="middle" transform="translate(10.56215615878176,15)" font-family="sans-serif" font-size="10px" fill="#000" opacity="1">1920</text><text text-anchor="middle" transform="translate(66.229434098707,15)" font-family="sans-serif" font-size="10px" fill="#000" opacity="1">1930</text><text text-anchor="middle" transform="translate(121.88147325463557,15)" font-family="sans-serif" font-size="10px" fill="#000" opacity="1">1940</text><text text-anchor="middle" transform="translate(177.5487511945608,15)" font-family="sans-serif" font-size="10px" fill="#000" opacity="1">1950</text><text text-anchor="middle" transform="translate(233.20079035048937,15)" font-family="sans-serif" font-size="10px" fill="#000" opacity="1">1960</text><text text-anchor="middle" transform="translate(288.8680682904146,15)" font-family="sans-serif" font-size="10px" fill="#000" opacity="1">1970</text><text text-anchor="middle" transform="translate(344.52010744634316,15)" font-family="sans-serif" font-size="10px" fill="#000" opacity="1">1980</text><text text-anchor="middle" transform="translate(400.18738538626843,15)" font-family="sans-serif" font-size="10px" fill="#000" opacity="1">1990</text><text text-anchor="middle" transform="translate(455.83942454219704,15)" font-family="sans-serif" font-size="10px" fill="#000" opacity="1">2000</text><text text-anchor="middle" transform="translate(511.5067024821222,15)" font-family="sans-serif" font-size="10px" fill="#000" opacity="1">2010</text><text text-anchor="middle" transform="translate(567.1587416380507,15)" font-family="sans-serif" font-size="10px" fill="#000" opacity="1">2020</text></g><g class="mark-rule role-axis-domain" pointer-events="none"><line transform="translate(0,0)" x2="600" y2="0" stroke="#888" stroke-width="1" opacity="1"/></g><g class="mark-text role-axis-title" pointer-events="none"><text text-anchor="middle" transform="translate(300,30)" font-family="sans-serif" font-size="11px" font-weight="bold" fill="#000" opacity="1">datum</text></g></g><path class="foreground" aria-hidden="true" d="" pointer-events="none" display="none"/></g></g><g class="mark-group role-axis" role="graphics-symbol" aria-roledescription="axis" aria-label="Y-axis titled 'podil' for a linear scale with values from 0.00 to 0.05"><g transform="translate(0.5,0.5)"><path class="background" aria-hidden="true" d="M0,0h0v0h0Z" pointer-events="none"/><g><g class="mark-rule role-axis-tick" pointer-events="none"><line transform="translate(0,300)" x2="-5" y2="0" stroke="#888" stroke-width="1" opacity="1"/><line transform="translate(0,270)" x2="-5" y2="0" stroke="#888" stroke-width="1" opacity="1"/><line transform="translate(0,240)" x2="-5" y2="0" stroke="#888" stroke-width="1" opacity="1"/><line transform="translate(0,210)" x2="-5" y2="0" stroke="#888" stroke-width="1" opacity="1"/><line transform="translate(0,180)" x2="-5" y2="0" stroke="#888" stroke-width="1" opacity="1"/><line transform="translate(0,150)" x2="-5" y2="0" stroke="#888" stroke-width="1" opacity="1"/><line transform="translate(0,120)" x2="-5" y2="0" stroke="#888" stroke-width="1" opacity="1"/><line transform="translate(0,90)" x2="-5" y2="0" stroke="#888" stroke-width="1" opacity="1"/><line transform="translate(0,60)" x2="-5" y2="0" stroke="#888" stroke-width="1" opacity="1"/><line transform="translate(0,30)" x2="-5" y2="0" stroke="#888" stroke-width="1" opacity="1"/><line transform="translate(0,0)" x2="-5" y2="0" stroke="#888" stroke-width="1" opacity="1"/></g><g class="mark-text role-axis-label" pointer-events="none"><text text-anchor="end" transform="translate(-7,303)" font-family="sans-serif" font-size="10px" fill="#000" opacity="1">0.000</text><text text-anchor="end" transform="translate(-7,273)" font-family="sans-serif" font-size="10px" fill="#000" opacity="1">0.005</text><text text-anchor="end" transform="translate(-7,243)" font-family="sans-serif" font-size="10px" fill="#000" opacity="1">0.010</text><text text-anchor="end" transform="translate(-7,213)" font-family="sans-serif" font-size="10px" fill="#000" opacity="1">0.015</text><text text-anchor="end" transform="translate(-7,183.00000000000003)" font-family="sans-serif" font-size="10px" fill="#000" opacity="1">0.020</text><text text-anchor="end" transform="translate(-7,153)" font-family="sans-serif" font-size="10px" fill="#000" opacity="1">0.025</text><text text-anchor="end" transform="translate(-7,123)" font-family="sans-serif" font-size="10px" fill="#000" opacity="1">0.030</text><text text-anchor="end" transform="translate(-7,92.99999999999999)" font-family="sans-serif" font-size="10px" fill="#000" opacity="1">0.035</text><text text-anchor="end" transform="translate(-7,63.00000000000002)" font-family="sans-serif" font-size="10px" fill="#000" opacity="1">0.040</text><text text-anchor="end" transform="translate(-7,33.00000000000003)" font-family="sans-serif" font-size="10px" fill="#000" opacity="1">0.045</text><text text-anchor="end" transform="translate(-7,3)" font-family="sans-serif" font-size="10px" fill="#000" opacity="1">0.050</text></g><g class="mark-rule role-axis-domain" pointer-events="none"><line transform="translate(0,300)" x2="0" y2="-300" stroke="#888" stroke-width="1" opacity="1"/></g><g class="mark-text role-axis-title" pointer-events="none"><text text-anchor="middle" transform="translate(-36.0244140625,150) rotate(-90) translate(0,-2)" font-family="sans-serif" font-size="11px" font-weight="bold" fill="#000" opacity="1">podil</text></g></g><path class="foreground" aria-hidden="true" d="" pointer-events="none" display="none"/></g></g><g class="mark-rect role-mark marks" role="graphics-object" aria-roledescription="rect mark container"><path aria-label="datum: Jan 01, 1919; podil: 0.000253742704897" role="graphics-symbol" aria-roledescription="bar" d="M2.4999999999882414,298.4775437706166h5v1.5224562293834083h-5Z" fill="#4c78a8"/><path aria-label="datum: Jan 01, 1920; podil: 0.00212314225053" role="graphics-symbol" aria-roledescription="bar" d="M8.06215615878176,287.2611464968153h5v12.738853503184714h-5Z" fill="#4c78a8"/><path aria-label="datum: Jan 01, 1921; podil: 0.00179833012203" role="graphics-symbol" aria-roledescription="bar" d="M13.639551101571968,289.2100192678227h5v10.789980732177298h-5Z" fill="#4c78a8"/><path aria-label="datum: Jan 01, 1922; podil: 0.00422386483633" role="graphics-symbol" aria-roledescription="bar" d="M19.201707260365488,274.65681098204857h5v25.34318901795143h-5Z" fill="#4c78a8"/><path aria-label="datum: Jan 01, 1923; podil: 0.00306220095694" role="graphics-symbol" aria-roledescription="bar" d="M24.763863419159,281.6267942583732h5v18.373205741626805h-5Z" fill="#4c78a8"/><path aria-label="datum: Jan 01, 1924; podil: 0.00249776984835" role="graphics-symbol" aria-roledescription="bar" d="M30.326019577952522,285.01338090990185h5v14.986619090098145h-5Z" fill="#4c78a8"/><path aria-label="datum: Jan 01, 1925; podil: 0.00264375413087" role="graphics-symbol" aria-roledescription="bar" d="M35.903414520742736,284.137475214805h5v15.862524785194978h-5Z" fill="#4c78a8"/><path aria-label="datum: Jan 01, 1926; podil: 0.00281769512539" role="graphics-symbol" aria-roledescription="bar" d="M41.46557067953625,283.0938292476754h5v16.906170752324613h-5Z" fill="#4c78a8"/><path aria-label="datum: Jan 01, 1927; podil: 0.00454545454545" role="graphics-symbol" aria-roledescription="bar" d="M47.02772683832976,272.7272727272727h5v27.27272727272731h-5Z" fill="#4c78a8"/><path aria-label="datum: Jan 01, 1928; podil: 0.003367003367" role="graphics-symbol" aria-roledescription="bar" d="M52.58988299712328,279.7979797979798h5v20.202020202020208h-5Z" fill="#4c78a8"/><path aria-label="datum: Jan 01, 1929; podil: 0.00217155266015" role="graphics-symbol" aria-roledescription="bar" d="M58.1672779399135,286.9706840390879h5v13.029315960912072h-5Z" fill="#4c78a8"/><path aria-label="datum: Jan 01, 1930; podil: 0.00349603334678" role="graphics-symbol" aria-roledescription="bar" d="M63.729434098707,279.0237999193223h5v20.9762000806777h-5Z" fill="#4c78a8"/><path aria-label="datum: Jan 01, 1931; podil: 0.00583138953682" role="graphics-symbol" aria-roledescription="bar" d="M69.29159025750053,265.0116627790737h5v34.988337220926326h-5Z" fill="#4c78a8"/><path aria-label="datum: Jan 01, 1932; podil: 0.0175683212493" role="graphics-symbol" aria-roledescription="bar" d="M74.85374641629403,194.59007250418296h5v105.40992749581704h-5Z" fill="#4c78a8"/><path aria-label="datum: Jan 01, 1933; podil: 0.0165065287017" role="graphics-symbol" aria-roledescription="bar" d="M80.43114135908425,200.9608277900961h5v99.03917220990391h-5Z" fill="#4c78a8"/><path aria-label="datum: Jan 01, 1934; podil: 0.0141887723627" role="graphics-symbol" aria-roledescription="bar" d="M85.99329751787776,214.8673658235657h5v85.1326341764343h-5Z" fill="#4c78a8"/><path aria-label="datum: Jan 01, 1935; podil: 0.00527950310559" role="graphics-symbol" aria-roledescription="bar" d="M91.55545367667128,268.32298136645966h5v31.677018633540342h-5Z" fill="#4c78a8"/><path aria-label="datum: Jan 01, 1936; podil: 0.00565644537065" role="graphics-symbol" aria-roledescription="bar" d="M97.1176098354648,266.06132777612385h5v33.938672223876154h-5Z" fill="#4c78a8"/><path aria-label="datum: Jan 01, 1937; podil: 0.00226757369615" role="graphics-symbol" aria-roledescription="bar" d="M102.69500477825501,286.3945578231293h5v13.605442176870724h-5Z" fill="#4c78a8"/><path aria-label="datum: Jan 01, 1938; podil: 0.0063371356147" role="graphics-symbol" aria-roledescription="bar" d="M108.25716093704852,261.9771863117871h5v38.02281368821292h-5Z" fill="#4c78a8"/><path aria-label="datum: Jan 01, 1945; podil: 0.00280898876404" role="graphics-symbol" aria-roledescription="bar" d="M147.22273161659652,283.14606741573033h5v16.85393258426967h-5Z" fill="#4c78a8"/><path aria-label="datum: Jan 01, 1946; podil: 0.01142041399" role="graphics-symbol" aria-roledescription="bar" d="M152.78488777539005,231.47751605995717h5v68.52248394004283h-5Z" fill="#4c78a8"/><path aria-label="datum: Jan 01, 1947; podil: 0.0141129032258" role="graphics-symbol" aria-roledescription="bar" d="M158.34767888351675,215.3225806451613h5v84.67741935483869h-5Z" fill="#4c78a8"/><path aria-label="datum: Jan 01, 1948; podil: 0.00479233226837" role="graphics-symbol" aria-roledescription="bar" d="M163.90920009297707,271.24600638977637h5v28.75399361022363h-5Z" fill="#4c78a8"/><path aria-label="datum: Jan 01, 1949; podil: 0.0036496350365" role="graphics-symbol" aria-roledescription="bar" d="M169.48659503576732,278.1021897810219h5v21.897810218978123h-5Z" fill="#4c78a8"/><path aria-label="datum: Jan 01, 1950; podil: 0.0045871559633" role="graphics-symbol" aria-roledescription="bar" d="M175.0487511945608,272.4770642201835h5v27.52293577981652h-5Z" fill="#4c78a8"/><path aria-label="datum: Jan 01, 1951; podil: 0.0109589041096" role="graphics-symbol" aria-roledescription="bar" d="M180.61090735335432,234.24657534246575h5v65.75342465753425h-5Z" fill="#4c78a8"/><path aria-label="datum: Jan 01, 1952; podil: 0.00258397932817" role="graphics-symbol" aria-roledescription="bar" d="M186.17306351214782,284.49612403100775h5v15.503875968992247h-5Z" fill="#4c78a8"/><path aria-label="datum: Jan 01, 1953; podil: 0.01393728223" role="graphics-symbol" aria-roledescription="bar" d="M191.75045845493807,216.37630662020908h5v83.62369337979092h-5Z" fill="#4c78a8"/><path aria-label="datum: Jan 01, 1956; podil: 0.00306748466258" role="graphics-symbol" aria-roledescription="bar" d="M208.43692693131862,281.5950920245399h5v18.404907975460105h-5Z" fill="#4c78a8"/><path aria-label="datum: Jan 01, 1959; podil: 0.00332225913621" role="graphics-symbol" aria-roledescription="bar" d="M225.13863419169584,280.06644518272424h5v19.933554817275763h-5Z" fill="#4c78a8"/><path aria-label="datum: Jan 01, 1966; podil: 0.0038240917782" role="graphics-symbol" aria-roledescription="bar" d="M264.10420487124384,277.0554493307839h5v22.944550669216085h-5Z" fill="#4c78a8"/><path aria-label="datum: Jan 01, 1967; podil: 0.0171755725191" role="graphics-symbol" aria-roledescription="bar" d="M269.66636103003736,196.94656488549617h5v103.05343511450383h-5Z" fill="#4c78a8"/><path aria-label="datum: Jan 01, 1968; podil: 0.0155232849274" role="graphics-symbol" aria-roledescription="bar" d="M275.2285171888309,206.8602904356535h5v93.1397095643465h-5Z" fill="#4c78a8"/><path aria-label="datum: Jan 01, 1969; podil: 0.0226468506723" role="graphics-symbol" aria-roledescription="bar" d="M280.8059121316211,164.11889596602973h5v135.88110403397027h-5Z" fill="#4c78a8"/><path aria-label="datum: Jan 01, 1970; podil: 0.0375" role="graphics-symbol" aria-roledescription="bar" d="M286.3680682904146,75.00000000000003h5v224.99999999999997h-5Z" fill="#4c78a8"/><path aria-label="datum: Jan 01, 1971; podil: 0.0196531791908" role="graphics-symbol" aria-roledescription="bar" d="M291.93022444920814,182.08092485549133h5v117.91907514450867h-5Z" fill="#4c78a8"/><path aria-label="datum: Jan 01, 1972; podil: 0.00166389351082" role="graphics-symbol" aria-roledescription="bar" d="M297.49238060800167,290.0166389351082h5v9.983361064891824h-5Z" fill="#4c78a8"/><path aria-label="datum: Jan 01, 1973; podil: 0.00584112149533" role="graphics-symbol" aria-roledescription="bar" d="M303.06977555079186,264.9532710280374h5v35.04672897196258h-5Z" fill="#4c78a8"/><path aria-label="datum: Jan 01, 1974; podil: 0.00875" role="graphics-symbol" aria-roledescription="bar" d="M308.6319317095854,247.5h5v52.5h-5Z" fill="#4c78a8"/><path aria-label="datum: Jan 01, 1975; podil: 0.0207877461707" role="graphics-symbol" aria-roledescription="bar" d="M314.1940878683789,175.27352297593h5v124.72647702407h-5Z" fill="#4c78a8"/><path aria-label="datum: Jan 01, 1976; podil: 0.012213740458" role="graphics-symbol" aria-roledescription="bar" d="M319.7562440271724,226.7175572519084h5v73.2824427480916h-5Z" fill="#4c78a8"/><path aria-label="datum: Jan 01, 1977; podil: 0.00641848523748" role="graphics-symbol" aria-roledescription="bar" d="M325.33363896996264,261.4890885750963h5v38.510911424903725h-5Z" fill="#4c78a8"/><path aria-label="datum: Jan 01, 1978; podil: 0.00722891566265" role="graphics-symbol" aria-roledescription="bar" d="M330.8957951287561,256.6265060240964h5v43.373493975903614h-5Z" fill="#4c78a8"/><path aria-label="datum: Jan 01, 1979; podil: 0.00917431192661" role="graphics-symbol" aria-roledescription="bar" d="M336.4579512875497,244.95412844036696h5v55.04587155963304h-5Z" fill="#4c78a8"/><path aria-label="datum: Jan 01, 1980; podil: 0.00550206327373" role="graphics-symbol" aria-roledescription="bar" d="M342.02010744634316,266.9876203576341h5v33.012379642365886h-5Z" fill="#4c78a8"/><path aria-label="datum: Jan 01, 1981; podil: 0.00198412698413" role="graphics-symbol" aria-roledescription="bar" d="M347.5975023891334,288.09523809523813h5v11.90476190476187h-5Z" fill="#4c78a8"/><path aria-label="datum: Jan 01, 1982; podil: 0.00518806744488" role="graphics-symbol" aria-roledescription="bar" d="M353.15965854792694,268.8715953307393h5v31.128404669260703h-5Z" fill="#4c78a8"/><path aria-label="datum: Jan 01, 1983; podil: 0.00352526439483" role="graphics-symbol" aria-roledescription="bar" d="M358.7218147067204,278.8484136310223h5v21.15158636897769h-5Z" fill="#4c78a8"/><path aria-label="datum: Jan 01, 1984; podil: 0.00144717800289" role="graphics-symbol" aria-roledescription="bar" d="M364.28397086551394,291.3169319826339h5v8.68306801736611h-5Z" fill="#4c78a8"/><path aria-label="datum: Jan 01, 1985; podil: 0.00157480314961" role="graphics-symbol" aria-roledescription="bar" d="M369.86136580830413,290.5511811023622h5v9.448818897637807h-5Z" fill="#4c78a8"/><path aria-label="datum: Jan 01, 1987; podil: 0.0030534351145" role="graphics-symbol" aria-roledescription="bar" d="M380.9856781258912,281.6793893129771h5v18.320610687022906h-5Z" fill="#4c78a8"/><path aria-label="datum: Jan 01, 1988; podil: 0.013468013468" role="graphics-symbol" aria-roledescription="bar" d="M386.5478342846847,219.1919191919192h5v80.8080808080808h-5Z" fill="#4c78a8"/><path aria-label="datum: Jan 01, 1989; podil: 0.0173961840629" role="graphics-symbol" aria-roledescription="bar" d="M392.12522922747496,195.62289562289564h5v104.37710437710436h-5Z" fill="#4c78a8"/><path aria-label="datum: Jan 01, 1990; podil: 0.00654097729896" role="graphics-symbol" aria-roledescription="bar" d="M397.68738538626843,260.75413620623317h5v39.24586379376683h-5Z" fill="#4c78a8"/><path aria-label="datum: Jan 01, 1991; podil: 0.00421434823484" role="graphics-symbol" aria-roledescription="bar" d="M403.24954154506196,274.7139105909813h5v25.2860894090187h-5Z" fill="#4c78a8"/><path aria-label="datum: Jan 01, 1992; podil: 0.00261590470058" role="graphics-symbol" aria-roledescription="bar" d="M408.81169770385543,284.30457179652285h5v15.69542820347715h-5Z" fill="#4c78a8"/><path aria-label="datum: Jan 01, 1993; podil: 0.00432242990654" role="graphics-symbol" aria-roledescription="bar" d="M414.3890926466457,274.06542056074767h5v25.93457943925233h-5Z" fill="#4c78a8"/><path aria-label="datum: Jan 01, 1994; podil: 0.00569395017794" role="graphics-symbol" aria-roledescription="bar" d="M419.95124880543915,265.83629893238435h5v34.16370106761565h-5Z" fill="#4c78a8"/><path aria-label="datum: Jan 01, 1995; podil: 0.00601131541726" role="graphics-symbol" aria-roledescription="bar" d="M425.51340496423273,263.9321074964639h5v36.067892503536086h-5Z" fill="#4c78a8"/><path aria-label="datum: Jan 01, 1996; podil: 0.00883552333484" role="graphics-symbol" aria-roledescription="bar" d="M431.0755611230262,246.98685999093794h5v53.013140009062056h-5Z" fill="#4c78a8"/><path aria-label="datum: Jan 01, 1997; podil: 0.00838655570608" role="graphics-symbol" aria-roledescription="bar" d="M436.65295606581645,249.68066576349915h5v50.31933423650085h-5Z" fill="#4c78a8"/><path aria-label="datum: Jan 01, 1998; podil: 0.00539784086365" role="graphics-symbol" aria-roledescription="bar" d="M442.21511222461,267.61295481807275h5v32.38704518192725h-5Z" fill="#4c78a8"/><path aria-label="datum: Jan 01, 1999; podil: 0.00313513513514" role="graphics-symbol" aria-roledescription="bar" d="M447.77726838340345,281.18918918918916h5v18.810810810810835h-5Z" fill="#4c78a8"/><path aria-label="datum: Jan 01, 2000; podil: 0.00280213323692" role="graphics-symbol" aria-roledescription="bar" d="M453.33942454219704,283.1872005785049h5v16.812799421495072h-5Z" fill="#4c78a8"/><path aria-label="datum: Jan 01, 2001; podil: 0.00301826846704" role="graphics-symbol" aria-roledescription="bar" d="M458.9168194849872,281.890389197776h5v18.109610802223983h-5Z" fill="#4c78a8"/><path aria-label="datum: Jan 01, 2002; podil: 0.00351086380498" role="graphics-symbol" aria-roledescription="bar" d="M464.4789756437807,278.9348171701113h5v21.065182829888727h-5Z" fill="#4c78a8"/><path aria-label="datum: Jan 01, 2003; podil: 0.00272223322114" role="graphics-symbol" aria-roledescription="bar" d="M470.0411318025742,283.66660067313404h5v16.33339932686596h-5Z" fill="#4c78a8"/><path aria-label="datum: Jan 01, 2004; podil: 0.00419941854205" role="graphics-symbol" aria-roledescription="bar" d="M475.60328796136776,274.80348874771187h5v25.196511252288133h-5Z" fill="#4c78a8"/><path aria-label="datum: Jan 01, 2005; podil: 0.0019118631106" role="graphics-symbol" aria-roledescription="bar" d="M481.180682904158,288.5288213363923h5v11.471178663607702h-5Z" fill="#4c78a8"/><path aria-label="datum: Jan 01, 2006; podil: 0.00291165427937" role="graphics-symbol" aria-roledescription="bar" d="M486.7428390629515,282.5300743238066h5v17.469925676193384h-5Z" fill="#4c78a8"/><path aria-label="datum: Jan 01, 2007; podil: 0.00745465723947" role="graphics-symbol" aria-roledescription="bar" d="M492.30499522174495,255.27205656317247h5v44.72794343682753h-5Z" fill="#4c78a8"/><path aria-label="datum: Jan 01, 2008; podil: 0.0100127983136" role="graphics-symbol" aria-roledescription="bar" d="M497.86715138053853,239.9232101181962h5v60.07678988180379h-5Z" fill="#4c78a8"/><path aria-label="datum: Jan 01, 2009; podil: 0.00423353974472" role="graphics-symbol" aria-roledescription="bar" d="M503.4445463233287,274.5987615316568h5v25.401238468343195h-5Z" fill="#4c78a8"/><path aria-label="datum: Jan 01, 2010; podil: 0.0018018018018" role="graphics-symbol" aria-roledescription="bar" d="M509.0067024821222,289.1891891891892h5v10.810810810810779h-5Z" fill="#4c78a8"/><path aria-label="datum: Jan 01, 2011; podil: 0.00461394696881" role="graphics-symbol" aria-roledescription="bar" d="M514.5688586409158,272.31631818712765h5v27.68368181287235h-5Z" fill="#4c78a8"/><path aria-label="datum: Jan 01, 2012; podil: 0.00977292325381" role="graphics-symbol" aria-roledescription="bar" d="M520.1310147997093,241.36246047714863h5v58.63753952285137h-5Z" fill="#4c78a8"/><path aria-label="datum: Jan 01, 2013; podil: 0.00294566877591" role="graphics-symbol" aria-roledescription="bar" d="M525.7084097424995,282.32598734453416h5v17.674012655465845h-5Z" fill="#4c78a8"/><path aria-label="datum: Jan 01, 2014; podil: 0.00279804137104" role="graphics-symbol" aria-roledescription="bar" d="M531.270565901293,283.21175177375835h5v16.78824822624165h-5Z" fill="#4c78a8"/><path aria-label="datum: Jan 01, 2015; podil: 0.00164720701516" role="graphics-symbol" aria-roledescription="bar" d="M536.8327220600864,290.11675790901603h5v9.88324209098397h-5Z" fill="#4c78a8"/><path aria-label="datum: Jan 01, 2016; podil: 0.00180588997963" role="graphics-symbol" aria-roledescription="bar" d="M542.3948782188801,289.16466012224487h5v10.835339877755132h-5Z" fill="#4c78a8"/><path aria-label="datum: Jan 01, 2017; podil: 0.00185442744553" role="graphics-symbol" aria-roledescription="bar" d="M547.9722731616703,288.87343532684287h5v11.126564673157134h-5Z" fill="#4c78a8"/><path aria-label="datum: Jan 01, 2018; podil: 0.00238615017515" role="graphics-symbol" aria-roledescription="bar" d="M553.5344293204638,285.68309894907856h5v14.316901050921444h-5Z" fill="#4c78a8"/><path aria-label="datum: Jan 01, 2019; podil: 0.00447465068175" role="graphics-symbol" aria-roledescription="bar" d="M559.0965854792573,273.1520959094939h5v26.84790409050612h-5Z" fill="#4c78a8"/><path aria-label="datum: Jan 01, 2020; podil: 0.00397848003978" role="graphics-symbol" aria-roledescription="bar" d="M564.6587416380507,276.12911976129124h5v23.870880238708764h-5Z" fill="#4c78a8"/><path aria-label="datum: Jan 01, 2021; podil: 0.0046771678942" role="graphics-symbol" aria-roledescription="bar" d="M570.236136580841,271.9369926348046h5v28.063007365195404h-5Z" fill="#4c78a8"/><path aria-label="datum: Jan 01, 2022; podil: 0.0320153512094" role="graphics-symbol" aria-roledescription="bar" d="M575.7982927396345,107.90789274352373h5v192.09210725647625h-5Z" fill="#4c78a8"/><path aria-label="datum: Jan 01, 2023; podil: 0.0476231410642" role="graphics-symbol" aria-roledescription="bar" d="M581.360448898428,14.261153614716783h5v285.73884638528324h-5Z" fill="#4c78a8"/><path aria-label="datum: Jan 01, 2024; podil: 0.0265647100424" role="graphics-symbol" aria-roledescription="bar" d="M586.9226050572215,140.6117397454031h5v159.3882602545969h-5Z" fill="#4c78a8"/><path aria-label="datum: Jan 01, 2025; podil: 0.01265293318" role="graphics-symbol" aria-roledescription="bar" d="M592.5000000000117,224.08240092021333h5v75.91759907978667h-5Z" fill="#4c78a8"/></g></g><path class="foreground" aria-hidden="true" d="" display="none"/></g></g></g></svg>